<?xml version="1.0" standalone="no"?>
<!DOCTYPE svg PUBLIC "-//W3C//DTD SVG 20010904//EN"
 "http://www.w3.org/TR/2001/REC-SVG-20010904/DTD/svg10.dtd">
<svg version="1.0" xmlns="http://www.w3.org/2000/svg"
 width="500.000000pt" height="500.000000pt" viewBox="0 0 500.000000 500.000000"
 preserveAspectRatio="xMidYMid meet">
<metadata>
Created by potrace 1.14, written by Peter Selinger 2001-2017
</metadata>
<g transform="translate(0.000000,500.000000) scale(0.100000,-0.100000)"
fill="#000000" stroke="none">
<path d="M2318 4915 c-2 -1 -32 -6 -68 -9 -191 -20 -383 -64 -573 -132 -100
-35 -171 -66 -179 -78 -4 -6 -8 -8 -8 -4 0 8 -146 -67 -212 -109 -21 -12 -40
-23 -43 -23 -3 0 -11 -5 -18 -10 -7 -6 -61 -46 -122 -89 -184 -132 -376 -318
-486 -472 -18 -24 -35 -46 -38 -49 -22 -19 -171 -261 -171 -279 0 -6 -4 -11
-10 -11 -5 0 -10 -4 -10 -10 0 -5 -18 -46 -39 -90 -22 -44 -37 -80 -35 -80 2
0 -2 -10 -10 -22 -22 -35 -92 -250 -120 -368 -27 -114 -32 -147 -53 -315 -9
-71 -9 -435 0 -485 3 -19 9 -55 12 -80 6 -55 13 -97 21 -130 3 -14 8 -36 10
-50 4 -21 13 -64 20 -92 1 -5 2 -9 4 -10 1 -2 3 -10 5 -19 25 -128 161 -450
257 -607 17 -28 18 -33 4 -38 -9 -3 -16 -13 -16 -21 0 -8 -5 -11 -12 -7 -32
20 -165 0 -195 -29 -3 -4 -28 -7 -54 -7 -38 0 -51 -4 -59 -20 -8 -15 -8 -20 1
-20 7 0 9 -3 5 -7 -4 -5 -14 1 -22 11 -10 15 -14 16 -14 5 0 -22 20 -38 38
-31 12 4 14 1 9 -12 -6 -14 -3 -17 8 -12 9 3 13 2 10 -4 -6 -10 5 -13 35 -11
10 0 11 -1 3 -5 -10 -4 -10 -11 -2 -26 8 -15 8 -19 0 -13 -8 5 -10 -1 -5 -21
5 -18 3 -25 -4 -20 -6 3 -9 20 -7 36 3 22 -1 33 -15 40 -23 12 -33 13 -26 2 3
-5 -1 -9 -9 -9 -18 0 -19 18 -2 37 10 12 9 12 -3 4 -8 -6 -22 -10 -30 -9 -8 1
-21 3 -27 3 -7 1 -13 6 -13 12 0 5 6 7 14 4 8 -3 17 -1 21 5 3 6 1 11 -5 11
-6 0 -9 4 -6 8 3 5 -7 8 -22 6 -15 -1 -32 -2 -38 -3 -7 -1 -11 -12 -10 -25 0
-14 6 -22 14 -19 9 4 10 9 1 19 -8 10 -8 14 -1 14 6 0 16 -9 22 -19 12 -23 13
-31 3 -30 -20 3 -34 -2 -28 -11 3 -5 1 -10 -6 -10 -7 0 -9 -3 -5 -7 4 -5 14 0
21 10 13 18 14 18 26 -2 10 -15 16 -17 26 -9 9 7 13 7 13 0 0 -6 -8 -16 -17
-22 -17 -11 -17 -11 0 -6 11 3 20 0 23 -9 4 -8 11 -12 16 -9 7 4 4 10 -5 16
-19 10 -13 35 8 35 16 0 20 -12 8 -20 -5 -2 -2 -2 6 0 9 2 11 -2 6 -14 -4 -10
-8 -25 -10 -33 -1 -8 0 -9 2 -3 3 7 9 13 14 13 6 0 7 -5 3 -12 -4 -7 -3 -8 4
-4 7 4 12 3 12 -3 0 -5 -8 -14 -17 -20 -10 -5 -14 -13 -10 -17 5 -5 12 -2 16
5 6 8 11 9 15 3 3 -6 2 -13 -4 -17 -5 -3 -10 -11 -10 -18 0 -6 6 -2 14 9 16
21 29 14 50 -28 7 -12 17 -22 23 -21 6 1 14 -5 17 -13 5 -12 2 -15 -11 -10
-15 6 -16 5 -5 -5 10 -11 16 -10 30 5 9 11 12 16 7 13 -6 -3 -16 3 -23 14 -16
25 -2 24 26 -2 12 -11 26 -18 30 -15 4 2 9 -4 9 -15 2 -17 -1 -18 -13 -8 -11
9 -18 9 -26 1 -12 -12 -3 -32 15 -32 7 0 6 4 -3 10 -8 5 -11 12 -7 16 3 4 13
1 21 -5 11 -10 16 -9 24 5 6 11 12 13 16 6 4 -6 -2 -17 -14 -24 -11 -7 -20
-16 -20 -21 0 -4 5 -5 10 -2 15 9 40 -14 34 -30 -3 -8 -1 -22 5 -32 9 -15 10
-13 5 10 -5 22 -3 26 10 21 8 -3 14 -9 13 -12 -1 -4 10 -19 23 -33 14 -15 36
-38 49 -53 18 -21 26 -24 37 -15 9 8 14 8 14 1 0 -6 -4 -14 -10 -17 -12 -7 15
-65 30 -65 5 0 7 -8 4 -18 -5 -14 -4 -15 5 -2 8 11 7 18 -6 28 -9 6 -13 12 -9
12 4 0 0 7 -8 16 -9 8 -13 20 -10 25 3 6 16 -3 28 -20 16 -21 26 -27 33 -20 8
8 13 7 17 0 4 -6 3 -11 -2 -11 -6 0 -13 -8 -16 -17 -6 -15 -5 -15 11 -2 10 8
23 15 28 14 23 -4 45 -18 39 -26 -2 -5 -14 -3 -24 3 -23 15 -39 3 -20 -15 10
-10 11 -9 5 2 -5 9 -3 12 6 9 8 -3 13 -12 13 -21 -1 -9 2 -15 6 -12 5 3 10 0
13 -7 2 -7 3 -3 1 9 -3 16 1 20 14 18 9 -2 19 -4 22 -4 3 -1 -2 -6 -10 -11
-13 -9 -11 -13 10 -31 l25 -21 -30 6 c-24 5 -26 4 -13 -4 10 -6 24 -10 30 -9
28 3 39 -1 32 -13 -5 -8 -2 -8 10 1 15 13 20 12 39 -7 12 -12 16 -22 10 -22
-7 0 -15 5 -18 10 -8 13 -28 13 -23 -1 2 -6 6 -9 9 -7 3 2 13 -3 22 -11 14
-11 25 -2 15 12 -2 2 3 11 10 20 12 14 11 16 -7 12 -15 -3 -19 1 -14 13 4 13
3 14 -5 3 -7 -9 -12 -10 -16 -2 -4 6 -2 11 5 11 7 0 4 6 -6 14 -13 10 -25 11
-37 5 -25 -13 -32 -11 -18 6 7 8 19 15 27 15 8 0 11 5 8 10 -5 8 -11 7 -20 0
-8 -7 -19 -9 -25 -5 -7 5 -5 11 7 20 15 12 21 11 41 -8 l22 -21 -4 25 c-2 13
-9 23 -16 21 -6 -1 -9 2 -5 7 8 13 37 2 32 -13 -7 -17 13 -47 25 -40 6 4 8 3
4 -4 -3 -6 3 -13 14 -17 20 -6 24 -16 20 -44 -2 -13 0 -13 16 0 15 12 16 12 9
0 -6 -11 -4 -13 9 -8 9 4 14 3 11 -2 -3 -5 3 -12 13 -15 10 -4 25 -17 32 -31
11 -20 11 -27 0 -40 -7 -8 -10 -18 -7 -22 4 -3 1 -13 -6 -22 -11 -14 -10 -14
6 -2 10 8 16 20 13 27 -3 7 -1 16 3 19 12 7 21 -19 15 -47 l-5 -23 10 23 c11
24 27 31 18 8 -3 -8 1 -20 9 -26 10 -9 14 -9 14 -1 0 6 -5 11 -12 11 -6 0 -8
3 -4 8 11 10 29 9 42 -3 13 -11 7 -28 -7 -20 -5 3 -6 -1 -2 -11 5 -15 7 -15
15 0 7 13 14 14 31 5 19 -9 19 -8 -3 10 -32 26 -14 27 24 1 l30 -19 -28 -11
c-16 -6 -26 -13 -23 -16 3 -3 15 -1 26 6 17 8 26 8 41 -3 11 -8 17 -17 13 -20
-3 -4 -1 -7 5 -7 18 0 14 11 -14 36 -14 13 -22 29 -19 34 3 6 1 10 -4 10 -6 0
-11 7 -11 15 0 8 -4 15 -10 15 -5 0 -6 -7 -3 -17 4 -10 2 -14 -4 -10 -13 8
-14 57 -1 57 5 0 7 -4 4 -9 -3 -5 1 -12 10 -15 24 -9 29 -7 16 6 -7 7 -12 17
-12 23 0 5 5 2 11 -7 5 -10 16 -18 24 -18 8 0 17 -5 21 -11 4 -7 0 -9 -14 -5
-11 4 -23 2 -27 -4 -4 -6 -3 -10 2 -9 4 1 10 1 13 -1 42 -16 56 -4 35 30 -8
13 -7 13 8 1 9 -7 17 -10 17 -5 0 5 9 -2 20 -16 20 -27 40 -32 52 -15 5 6 8 6
8 -2 0 -6 -5 -15 -10 -18 -6 -4 -8 -11 -5 -16 12 -19 -7 -30 -22 -12 -8 10
-11 11 -7 3 6 -11 1 -11 -20 4 -16 10 -25 12 -21 5 5 -8 4 -10 -4 -5 -6 4 -9
12 -6 17 4 5 1 9 -4 9 -6 0 -11 -4 -11 -10 0 -5 -5 -10 -11 -10 -5 0 -8 4 -4
9 3 5 0 13 -6 17 -8 5 -9 3 -4 -6 6 -9 4 -11 -6 -6 -8 4 -1 -4 16 -18 22 -19
32 -22 42 -14 9 7 13 7 13 0 0 -6 -8 -16 -17 -21 -10 -6 -13 -11 -6 -11 6 0
15 5 18 10 7 12 25 4 25 -11 0 -6 -5 -7 -10 -4 -5 3 -10 1 -10 -5 0 -7 6 -10
13 -7 6 2 11 12 11 21 -1 9 3 15 10 13 6 -3 10 -10 8 -16 -1 -7 2 -10 8 -6 6
3 8 11 5 16 -4 5 -2 9 3 9 17 0 22 -13 9 -28 -9 -13 -9 -14 1 -8 7 4 12 2 12
-5 0 -7 7 -4 16 7 11 14 14 15 11 3 -3 -9 -1 -22 4 -30 6 -10 9 -11 9 -1 0 9
5 9 23 -2 25 -17 65 -18 85 -2 10 7 12 3 7 -20 -5 -25 -4 -26 4 -6 12 26 26
30 17 5 -5 -15 -3 -14 11 2 16 18 24 21 51 16 4 0 -7 -10 -25 -21 -20 -12 -31
-26 -30 -39 0 -11 5 -18 9 -15 4 3 4 12 1 21 -5 12 -3 14 7 8 9 -6 11 -4 5 5
-6 10 -4 12 9 7 11 -5 15 -3 10 5 -5 8 -2 9 10 5 10 -4 15 -3 11 3 -3 6 -2 10
4 10 5 0 12 -6 15 -12 3 -7 4 -4 1 7 -4 16 0 21 16 22 15 1 18 -1 10 -11 -5
-6 -9 -21 -8 -33 1 -19 4 -20 22 -10 11 6 23 10 28 9 4 -1 7 2 7 7 0 5 13 16
29 24 28 14 29 13 28 -4 -1 -13 -6 -18 -16 -14 -11 4 -10 0 4 -15 20 -22 35
-26 35 -9 0 5 -4 7 -10 4 -5 -3 -10 -2 -10 2 0 14 58 44 64 34 3 -5 -3 -11
-14 -14 -11 -3 -20 -11 -20 -19 0 -11 2 -11 9 1 5 7 21 13 36 14 16 0 22 3 15
7 -7 4 -8 10 -4 12 5 3 3 3 -4 1 -7 -1 -11 1 -8 5 2 4 -9 8 -24 8 -16 1 -28
-3 -27 -8 1 -6 -5 -13 -13 -15 -10 -3 -11 -2 -3 4 8 6 8 13 -3 27 -10 14 -14
16 -14 5 0 -8 -3 -10 -8 -4 -4 6 -14 11 -22 13 -10 1 -9 -2 4 -13 17 -13 17
-15 4 -15 -9 0 -20 5 -23 10 -4 6 -11 8 -16 5 -5 -4 -10 -1 -10 4 -1 6 -2 16
-3 23 0 6 -7 13 -14 16 -11 3 -12 0 -2 -18 6 -12 9 -24 6 -28 -3 -3 -6 1 -6 8
0 7 -3 10 -7 7 -3 -4 -12 2 -20 13 -8 11 -19 20 -25 20 -7 0 -7 -4 1 -14 9
-10 7 -17 -5 -27 -15 -12 -16 -11 -10 7 4 14 1 26 -9 34 -9 8 -15 8 -15 2 0
-6 4 -13 10 -17 5 -3 6 -13 3 -21 -5 -15 -7 -15 -15 0 -5 9 -13 14 -19 11 -5
-4 -9 -1 -9 4 0 6 -5 11 -11 11 -5 0 -8 -4 -4 -9 3 -5 0 -13 -6 -17 -8 -5 -9
-3 -4 6 6 9 4 11 -5 5 -8 -5 -11 -4 -6 3 4 7 -1 10 -14 7 -11 -2 -18 0 -16 4
3 4 -1 8 -9 8 -8 0 -12 -4 -9 -9 3 -5 2 -8 -3 -7 -27 5 -35 -1 -23 -16 15 -18
-1 -20 -18 -3 -18 18 -15 28 8 28 11 0 20 5 20 11 0 6 -8 8 -19 4 -11 -3 -22
-1 -26 5 -5 8 -12 7 -23 -2 -13 -11 -14 -11 -7 1 5 9 4 12 -3 7 -12 -7 -9 40
3 52 4 4 4 -4 0 -18 -4 -14 -4 -22 0 -18 5 4 14 3 22 -3 9 -8 13 -8 13 -1 0 6
-4 14 -10 17 -5 3 -10 12 -10 18 1 7 6 6 13 -4 7 -9 16 -18 22 -20 5 -2 9 -8
7 -13 -2 -5 4 -6 13 -2 9 3 14 2 11 -3 -3 -5 1 -11 9 -15 8 -3 17 -1 20 4 4 6
2 10 -2 10 -5 0 -14 10 -22 22 -13 21 -13 22 1 10 9 -7 18 -9 20 -5 3 4 3 3 2
-4 -6 -23 17 -25 23 -3 6 21 7 20 19 -10 9 -20 18 -29 25 -24 8 4 9 3 5 -4 -4
-7 -2 -12 3 -12 6 0 11 6 11 14 0 19 25 27 40 13 10 -9 14 -9 17 1 3 6 9 12
15 12 7 0 6 -5 -1 -14 -8 -10 -9 -16 -1 -21 5 -3 10 -2 10 4 0 5 14 9 30 9 17
-1 30 -5 30 -10 0 -5 9 -4 20 2 14 7 20 7 20 0 0 -5 -8 -10 -17 -10 -9 0 -13
-3 -9 -8 13 -12 30 -8 49 13 10 11 16 15 13 9 -7 -15 23 -56 35 -48 6 3 3 11
-7 18 -9 7 -14 19 -11 27 4 10 6 9 6 -4 1 -10 6 -15 11 -12 6 3 10 1 10 -5 0
-6 5 -8 12 -4 7 4 8 3 4 -4 -4 -7 3 -16 18 -23 14 -7 22 -17 19 -25 -3 -8 1
-14 11 -14 12 0 15 -6 10 -24 -6 -26 10 -44 22 -25 4 8 3 9 -4 5 -8 -5 -11 2
-9 23 4 31 17 56 17 31 0 -10 3 -10 14 -1 12 10 17 8 27 -11 15 -27 15 -26 -8
-44 -17 -14 -16 -14 5 -4 12 6 20 15 17 21 -4 5 -1 9 4 9 6 0 11 5 11 11 0 5
-4 8 -9 5 -5 -3 -12 1 -15 10 -9 25 -7 27 11 13 10 -8 14 -9 10 -2 -4 6 -3 14
3 18 5 3 10 3 11 -2 6 -42 2 -70 -11 -81 -13 -11 -11 -11 8 -2 13 7 21 14 18
17 -3 3 6 15 20 26 20 15 23 22 12 28 -9 6 -9 9 -1 9 21 0 25 -21 7 -41 -9
-10 -13 -19 -8 -19 5 0 2 -5 -6 -11 -13 -9 -13 -10 0 -6 8 2 14 10 12 17 -2 7
3 10 12 7 10 -4 13 -1 10 7 -3 7 2 13 11 13 8 0 15 -4 15 -8 0 -4 8 -10 17
-13 15 -6 14 -4 -2 14 -19 21 -19 21 3 27 12 3 22 10 22 15 0 5 -4 7 -9 3 -5
-3 -17 2 -25 11 -15 14 -16 14 -17 -3 0 -16 -1 -16 -9 2 -8 18 -9 18 -9 2 -1
-15 -4 -16 -22 -6 -17 9 -20 8 -14 -2 5 -7 4 -10 -3 -5 -5 3 -12 3 -15 -1 -2
-5 -3 -3 -1 3 1 5 -9 10 -21 10 -13 0 -22 -3 -19 -7 2 -5 -5 -6 -16 -4 -11 2
-20 0 -20 -6 0 -5 -5 -9 -12 -9 -6 0 -8 3 -5 7 4 3 -1 15 -10 26 -10 11 -13
17 -6 14 6 -4 13 -1 16 5 2 8 8 9 13 4 5 -5 4 -11 -4 -13 -6 -3 -9 -9 -6 -15
4 -6 13 -1 21 13 l14 24 -7 -25 c-6 -22 -5 -23 9 -11 9 7 14 18 10 24 -3 5 -1
7 5 3 6 -3 18 1 26 10 9 8 16 10 16 4 0 -6 -7 -13 -15 -16 -8 -4 -12 -10 -9
-16 3 -5 12 -4 21 4 18 15 45 20 37 7 -3 -5 -10 -6 -16 -3 -7 4 -8 2 -4 -4 5
-8 13 -9 25 -2 10 5 22 6 26 2 4 -4 4 4 0 18 -5 21 -3 20 14 -7 11 -18 23 -33
26 -33 11 0 0 35 -13 45 -10 8 -9 11 7 11 11 0 18 -3 15 -7 -6 -10 22 -19 32
-11 5 4 1 0 -8 -10 -23 -21 -23 -23 2 -25 11 -1 18 1 16 5 -2 4 2 16 10 27 8
10 14 13 14 6 0 -7 4 -9 10 -6 5 3 10 1 10 -4 0 -6 -5 -11 -11 -11 -5 0 -7 -4
-4 -10 4 -6 15 -4 29 5 12 8 26 12 29 9 4 -4 14 -1 24 7 13 11 15 11 9 1 -10
-16 25 -13 36 3 5 6 8 6 8 -2 0 -12 24 -12 36 0 4 4 14 1 22 -6 13 -10 15 -9
9 8 -7 19 -7 19 8 1 16 -21 11 -40 -8 -29 -9 5 -9 3 0 -8 13 -16 1 -39 -21
-39 -6 0 -5 5 2 12 14 14 16 32 3 23 -5 -3 -16 1 -24 10 -13 13 -16 13 -21 -2
-4 -9 -2 -21 4 -27 7 -7 10 -6 10 2 0 7 4 12 9 12 5 0 9 -11 9 -25 -1 -23 -2
-23 -21 -10 -25 17 -37 19 -37 5 0 -5 3 -9 8 -8 4 1 17 -3 29 -10 14 -8 24 -9
28 -2 4 6 12 7 18 4 7 -4 9 -4 5 1 -4 4 0 14 8 22 8 8 11 19 8 24 -9 14 28 7
45 -9 17 -16 6 -29 -12 -14 -10 8 -16 6 -25 -9 -7 -11 -8 -19 -2 -19 5 0 10 5
10 10 0 6 5 10 11 10 6 0 8 -8 4 -19 -4 -12 0 -21 11 -25 13 -5 15 -4 5 7 -9
11 -8 17 3 26 12 10 17 8 26 -8 6 -12 15 -21 21 -21 5 0 1 10 -11 22 -25 28
-26 42 -1 26 11 -7 17 -17 13 -23 -3 -5 2 -4 11 4 13 11 20 11 32 1 8 -6 18
-9 23 -6 6 3 15 -1 22 -8 6 -8 20 -14 31 -13 21 1 25 13 7 20 -10 3 -10 7 1
20 7 10 18 17 23 17 6 0 6 -6 -1 -14 -8 -10 -9 -16 -1 -21 14 -9 32 5 26 20
-6 17 20 40 29 25 3 -5 1 -10 -4 -10 -6 0 -11 -5 -11 -11 0 -5 4 -8 9 -4 6 3
15 -3 21 -12 11 -17 11 -17 6 1 -5 13 -2 17 9 13 8 -4 17 -2 20 3 4 6 10 10
16 10 5 0 4 -9 -3 -19 -7 -11 -17 -17 -23 -14 -5 4 -7 3 -3 -2 4 -4 3 -15 -2
-25 -6 -12 -5 -17 5 -17 7 0 11 7 7 15 -3 10 -1 13 7 8 6 -4 11 -4 10 1 -1 4
1 16 6 26 7 17 9 17 26 1 11 -9 19 -13 19 -7 0 13 32 13 48 0 9 -7 19 -4 35
10 24 22 78 25 85 5 2 -8 -2 -10 -15 -6 -14 6 -15 4 -6 -6 13 -14 34 -5 32 13
-3 29 2 48 11 42 6 -4 8 -15 5 -25 -3 -10 -1 -21 4 -24 15 -10 30 26 20 49 -5
13 -8 15 -8 5 -1 -12 -3 -13 -10 -1 -5 8 -14 10 -21 6 -9 -6 -11 -4 -5 5 5 9
4 11 -4 6 -6 -4 -9 -16 -6 -27 5 -14 2 -17 -9 -13 -12 5 -13 11 -6 24 14 26
12 34 -4 21 -8 -7 -13 -21 -11 -32 2 -10 0 -19 -6 -19 -8 0 -13 15 -10 33 0 4
-4 7 -10 7 -6 0 -8 -8 -5 -17 5 -15 4 -15 -9 1 -8 11 -15 15 -15 10 0 -5 -15
-10 -34 -10 -25 0 -32 4 -28 15 4 9 1 12 -7 7 -7 -5 -10 -14 -8 -20 3 -7 -1
-13 -8 -13 -7 0 -11 7 -8 16 4 14 3 14 -7 1 -10 -13 -11 -13 -6 3 3 10 0 17
-7 17 -7 0 -20 7 -31 15 -18 13 -18 14 2 12 11 0 19 -4 17 -7 -2 -3 8 -10 21
-17 26 -12 31 -5 12 16 -7 8 -1 6 13 -3 14 -9 29 -13 34 -9 4 5 5 3 1 -4 -9
-16 82 -8 110 9 6 4 22 1 37 -7 24 -12 28 -11 51 10 15 13 26 19 26 14 0 -6 5
-7 11 -3 7 4 4 -7 -7 -24 -10 -17 -20 -29 -23 -27 -2 3 1 11 7 17 19 19 14 29
-8 16 -17 -11 -18 -15 -5 -34 13 -20 12 -25 -6 -48 -13 -16 -26 -23 -37 -19
-9 3 -15 4 -12 2 3 -2 15 -12 27 -22 16 -14 23 -15 29 -6 4 7 3 10 -4 5 -20
-12 -21 10 -1 27 10 9 19 14 19 11 0 -3 16 7 35 21 19 15 39 24 44 21 12 -8
30 24 24 41 -2 6 1 14 6 18 7 4 8 0 4 -11 -4 -12 -2 -15 8 -12 8 3 14 12 14
21 0 8 2 17 5 19 3 2 4 1 3 -1 -4 -7 19 -31 29 -31 5 0 6 5 2 12 -4 7 -3 8 4
4 6 -4 9 -13 5 -21 -4 -11 -1 -13 11 -9 9 3 16 1 16 -6 0 -6 -4 -9 -9 -5 -5 3
-12 1 -16 -5 -3 -5 2 -10 12 -11 10 0 35 -2 55 -3 22 -1 40 4 42 11 4 9 -1 10
-19 3 -14 -5 -25 -7 -25 -4 0 2 10 8 22 13 12 4 17 10 11 14 -6 4 -22 -2 -35
-12 -22 -18 -24 -18 -25 -2 -1 9 8 23 19 30 11 7 17 8 13 2 -3 -6 -1 -11 4
-11 6 0 11 5 11 11 0 7 9 0 21 -15 11 -14 18 -30 15 -35 -7 -11 3 -41 14 -41
5 0 25 9 44 21 30 18 34 24 25 40 -8 15 -14 17 -29 9 -25 -13 -42 -9 -58 13
-16 21 -6 43 12 28 7 -6 17 -7 21 -3 5 4 5 2 2 -4 -4 -7 0 -15 9 -18 22 -9 32
3 14 15 -12 7 -10 8 7 6 28 -4 33 -8 38 -38 3 -12 11 -27 19 -31 9 -5 13 -16
10 -26 -5 -13 -4 -14 4 -3 5 7 12 9 14 5 3 -5 3 -3 2 4 -5 19 7 43 19 35 6 -3
7 -1 3 5 -4 7 -2 12 3 12 6 0 11 -7 11 -15 0 -8 -4 -15 -10 -15 -5 0 -10 -4
-10 -10 0 -21 20 -9 26 16 4 16 10 22 16 16 6 -6 6 -17 -2 -31 -6 -12 -7 -21
-3 -20 21 4 33 -2 27 -13 -5 -7 -3 -8 5 -4 7 5 10 11 7 14 -10 9 25 41 39 36
7 -3 16 3 19 13 7 16 9 16 22 -7 15 -25 15 -25 8 -1 -4 16 -3 21 5 17 10 -6
15 5 13 25 -1 4 10 7 24 7 l25 0 -21 -20 c-26 -24 -13 -47 17 -29 16 10 15 11
-7 5 -22 -6 -23 -5 -11 10 8 9 20 15 28 12 11 -5 11 -1 2 17 -9 17 -9 20 1 10
7 -6 20 -9 29 -5 13 5 14 3 4 -9 -12 -15 -12 -43 0 -55 3 -4 4 3 2 16 -3 15 5
32 25 52 24 24 33 27 49 18 25 -13 31 -13 31 1 0 5 -4 7 -10 4 -5 -3 -10 -2
-10 2 0 5 -11 9 -25 9 -14 0 -25 -5 -25 -10 0 -6 -4 -5 -9 2 -4 8 -11 13 -15
13 -3 -1 -7 -1 -8 0 -22 6 -37 5 -32 -3 4 -5 -3 -5 -16 2 -12 6 -24 9 -28 6
-3 -3 -1 -6 4 -6 6 0 19 -7 30 -16 10 -8 13 -13 6 -9 -7 4 -20 1 -29 -7 -14
-11 -16 -11 -8 1 5 9 4 12 -2 8 -5 -3 -9 4 -7 16 1 12 3 26 3 30 1 5 6 5 13 1
8 -5 9 -2 5 9 -3 9 -1 19 5 23 7 4 8 3 4 -4 -4 -7 -2 -12 5 -12 9 0 9 -3 -1
-14 -9 -12 -8 -15 9 -13 24 1 27 16 9 37 -11 12 -10 12 3 2 9 -6 20 -8 24 -4
5 4 5 1 1 -5 -4 -7 -2 -21 4 -30 10 -16 11 -16 6 -1 -7 22 13 36 47 32 17 -1
25 1 21 8 -4 6 3 5 16 -2 20 -11 21 -10 15 9 -4 13 -2 21 5 21 6 0 8 -4 5 -10
-13 -20 14 -9 29 12 9 12 16 18 16 13 0 -6 5 -3 10 5 6 9 10 10 10 3 0 -7 -8
-16 -17 -21 -19 -11 -28 -45 -10 -39 7 3 11 10 9 16 -1 7 2 10 7 7 9 -6 38 52
33 66 -1 5 3 8 9 8 6 0 8 -7 5 -15 -21 -52 -21 -51 0 -35 50 38 70 56 69 62 0
3 3 9 7 13 3 4 5 -1 4 -11 -2 -10 -8 -20 -14 -22 -6 -2 -8 -10 -5 -18 4 -12 8
-11 20 6 8 11 20 20 28 20 7 0 16 6 18 13 4 9 8 9 15 -1 5 -8 12 -13 16 -13
16 2 18 0 7 -12 -6 -8 -8 -17 -4 -20 3 -4 1 -7 -5 -7 -11 0 -16 13 -13 33 1
10 -11 9 -29 -3 -13 -9 -13 -10 0 -10 13 0 13 -1 0 -10 -12 -8 -10 -10 8 -10
13 0 20 -4 17 -10 -3 -6 1 -7 10 -4 11 5 14 2 9 -10 -3 -9 -1 -16 6 -16 6 0 8
5 4 11 -4 7 -1 10 7 7 8 -3 13 -12 11 -22 -2 -9 1 -16 5 -16 17 0 11 39 -6 45
-17 5 -25 35 -9 35 4 0 8 -3 8 -8 0 -4 9 -13 19 -19 15 -10 20 -9 25 2 3 10 0
12 -12 8 -15 -6 -15 -5 -3 10 7 9 18 14 23 11 5 -3 17 1 26 9 14 12 22 12 46
2 18 -7 24 -15 17 -19 -6 -4 -17 -4 -23 0 -10 5 -10 4 0 -7 10 -11 15 -10 29
4 16 15 15 17 -8 26 -21 8 -22 10 -6 16 12 5 16 14 12 29 -6 20 -5 20 9 3 8
-11 12 -25 10 -31 -3 -7 2 -13 10 -13 11 0 13 5 6 18 -12 21 12 44 35 35 11
-4 14 -2 9 6 -5 8 -2 9 10 5 13 -5 15 -3 7 12 -8 14 -6 24 8 40 10 11 21 18
25 14 3 -3 -1 -15 -11 -25 -9 -10 -13 -21 -10 -25 4 -3 7 -1 7 5 0 7 5 12 11
12 5 0 7 -5 4 -10 -3 -6 -1 -10 5 -10 6 0 9 8 6 18 -4 12 3 27 19 42 20 19 27
21 40 10 19 -16 20 -4 1 15 -7 8 -17 11 -21 7 -4 -4 -6 0 -3 8 5 17 25 20 50
8 12 -6 18 -3 23 13 4 13 12 18 21 15 9 -4 12 -1 9 5 -4 6 -13 8 -21 5 -18 -7
-45 4 -38 15 3 5 -2 6 -10 3 -9 -3 -16 -10 -16 -15 0 -5 -3 -8 -7 -8 -20 3
-34 -2 -28 -10 3 -5 -1 -16 -9 -24 -8 -8 -12 -18 -8 -21 3 -4 -6 -5 -21 -2
-14 2 -29 0 -32 -5 -4 -5 1 -9 10 -9 9 0 14 -4 10 -10 -3 -5 -13 -6 -21 -3
-13 5 -15 1 -10 -18 l7 -24 -14 23 -13 23 -12 -25 c-9 -20 -9 -26 1 -26 9 0 8
-3 -1 -9 -8 -4 -13 -12 -12 -17 1 -5 -4 -10 -12 -12 -10 -3 -10 -2 1 6 9 7 10
12 2 16 -6 4 -11 2 -11 -3 0 -6 -3 -10 -7 -10 -22 4 -30 -3 -29 -23 0 -11 -5
-23 -12 -26 -7 -2 -11 0 -10 5 3 8 -6 14 -19 12 -5 -1 -17 -2 -28 -3 -13 -1
-19 -7 -19 -19 1 -10 -1 -16 -4 -13 -3 3 -11 1 -19 -5 -10 -9 -13 -8 -14 2 0
8 -2 25 -5 39 -3 19 -2 22 6 10 9 -13 11 -13 19 0 5 8 8 17 5 21 -2 4 1 11 7
15 7 4 9 3 5 -4 -3 -5 0 -13 6 -15 10 -4 10 -6 1 -6 -21 -1 -15 -17 6 -17 11
0 17 5 14 13 -3 7 0 13 7 13 6 0 9 -4 6 -9 -3 -5 5 -9 18 -9 13 0 23 7 23 14
0 8 -7 13 -16 12 -13 -2 -16 6 -16 40 0 24 3 46 7 48 3 2 5 -16 2 -41 -3 -35
0 -43 11 -39 8 4 12 10 9 15 -3 5 0 9 6 9 7 0 10 -7 6 -15 -3 -8 -2 -15 3 -15
11 0 21 38 11 42 -4 2 -1 10 8 18 14 13 15 12 10 -2 -4 -10 -1 -19 8 -22 16
-6 15 16 -5 54 -11 22 -10 23 2 7 13 -15 16 -15 27 -2 7 8 16 13 20 10 4 -3
13 2 20 10 10 12 10 19 -1 32 -12 16 -12 17 2 6 9 -7 19 -9 23 -5 5 4 6 -2 4
-12 -1 -10 2 -21 8 -23 14 -5 14 28 0 46 -9 12 -8 13 3 6 11 -6 13 -2 9 17 -5
26 4 30 30 14 10 -6 12 -3 10 10 -2 12 3 19 12 19 8 0 14 -6 12 -13 -1 -8 7
-16 18 -19 11 -3 20 -9 20 -13 0 -5 15 -8 32 -7 33 2 34 0 29 -44 0 -5 -7 -7
-13 -3 -7 4 -10 3 -5 -1 11 -13 48 -14 39 -1 -11 14 -9 26 6 53 10 19 9 23 -8
28 -23 7 -27 22 -5 22 8 0 15 -4 15 -9 0 -4 5 -8 11 -8 8 0 8 4 0 14 -7 8 -21
13 -31 11 -22 -4 -33 27 -16 45 8 10 7 11 -4 8 -9 -3 -14 -15 -12 -27 2 -19
-1 -21 -20 -15 -20 6 -21 5 -9 -10 7 -9 10 -16 5 -16 -5 0 -2 -5 6 -10 13 -8
13 -11 1 -22 -11 -10 -12 -10 -7 0 4 7 4 12 -1 11 -4 -1 -15 -1 -23 0 -11 1
-12 4 -3 9 8 5 4 14 -12 28 -13 12 -27 19 -30 16 -3 -3 -5 0 -5 6 0 17 20 15
26 -2 3 -8 12 -12 19 -10 8 3 11 12 8 20 -3 8 -10 11 -16 7 -6 -4 -7 -1 -3 6
5 7 11 10 14 7 3 -3 12 0 21 7 14 11 14 10 2 -6 -8 -9 -11 -20 -7 -24 3 -4 13
2 21 13 12 17 12 20 -2 32 -9 6 -12 12 -6 12 7 0 15 -5 18 -10 4 -6 11 -7 17
-4 6 4 5 10 -3 15 -10 6 -10 9 -2 9 7 0 10 7 7 18 -5 14 -4 14 4 2 6 -8 8 -18
6 -22 -3 -4 0 -8 5 -8 6 0 11 8 11 18 0 24 19 42 36 35 14 -5 20 12 7 20 -5 2
-3 2 4 1 6 -2 17 4 25 13 11 14 10 15 -12 9 -21 -6 -22 -5 -7 4 14 9 22 9 33
0 17 -15 18 -7 2 21 -11 17 -10 23 0 26 6 3 9 9 6 15 -4 6 1 6 14 -1 11 -6 23
-16 25 -23 3 -8 6 -6 6 5 1 14 6 17 23 11 20 -6 21 -5 10 8 -13 16 -6 52 8 43
5 -3 11 -1 15 5 3 5 -1 10 -9 10 -8 0 -17 4 -20 8 -2 4 4 8 15 8 19 0 23 -8
19 -35 -1 -12 1 -13 14 -2 25 21 3 51 -39 52 -34 1 -46 3 -62 9 -5 2 -12 4
-18 5 -58 8 -87 19 -108 41 -16 16 -37 25 -61 26 -45 2 -76 31 -59 56 35 50
124 207 157 277 61 127 153 376 160 435 1 9 5 21 10 28 4 6 5 12 2 12 -2 0 0
15 5 33 18 63 44 230 54 352 6 68 7 300 1 360 -9 99 -19 174 -28 220 -5 28
-11 60 -14 73 -17 90 -22 109 -40 171 -10 31 -18 58 -19 61 -2 9 -26 85 -32
100 -3 8 -7 20 -9 25 -1 6 -10 28 -20 50 -10 22 -19 46 -20 53 -5 26 -129 265
-170 329 -24 36 -44 68 -44 70 0 7 -136 185 -182 238 -150 175 -421 400 -603
501 -78 43 -170 90 -230 116 -38 16 -83 36 -100 43 -29 13 -119 44 -140 49 -5
2 -41 12 -80 24 -82 25 -292 67 -385 78 -61 7 -426 14 -432 9z m-2171 -3757
c2 -17 0 -19 -7 -8 -5 8 -6 18 -4 22 8 12 10 10 11 -14z m-81 -20 c3 -4 -1 -5
-10 -4 -8 1 -18 5 -22 8 -3 4 1 5 10 4 8 -1 18 -5 22 -8z m114 -23 c7 -8 9
-15 6 -15 -4 0 -14 7 -22 15 -9 8 -11 15 -6 15 5 0 15 -7 22 -15z m50 -15 c0
-5 -5 -10 -11 -10 -5 0 -7 5 -4 10 3 6 8 10 11 10 2 0 4 -4 4 -10z m-133 -16
c0 -6 -10 -10 -21 -9 -27 3 -28 4 -22 13 7 12 43 9 43 -4z m148 -4 c-3 -5 0
-10 7 -10 7 -1 3 -6 -10 -13 -12 -7 -19 -16 -16 -20 4 -4 2 -7 -5 -7 -7 0 -9
-5 -5 -12 5 -8 12 -5 24 9 l17 21 13 -22 c12 -18 11 -19 -2 -9 -8 7 -18 10
-21 7 -10 -10 36 -42 53 -37 13 4 13 3 -1 -9 -24 -20 -7 -78 24 -78 5 0 3 8
-7 19 -20 22 -12 53 11 44 12 -5 14 -3 8 8 -5 8 -4 11 0 6 13 -12 15 -36 3
-44 -7 -3 -8 -1 -4 5 4 7 1 12 -8 12 -22 0 -20 -13 7 -36 32 -28 52 -34 67
-21 10 9 11 9 4 -3 -5 -8 -10 -24 -11 -35 -3 -15 -1 -17 8 -8 6 6 18 9 27 6 9
-4 13 -2 9 4 -3 5 0 10 8 10 13 0 13 -3 0 -17 -20 -22 0 -42 30 -29 32 12 43
9 12 -5 -27 -12 -27 -12 -8 -30 11 -10 25 -15 31 -11 14 9 2 27 -13 19 -7 -4
-8 -3 -4 1 23 25 42 7 24 -22 -4 -6 -3 -14 2 -17 5 -4 11 0 14 6 2 7 8 9 13 5
9 -9 -16 -28 -27 -21 -4 2 -7 -5 -6 -16 1 -21 17 -28 17 -7 0 8 3 7 9 -3 6 -8
7 -18 4 -24 -4 -5 1 -7 10 -3 9 3 23 0 31 -9 8 -8 17 -10 21 -5 3 6 -1 14 -10
18 -12 7 -11 10 5 21 12 7 20 8 20 2 0 -5 -5 -10 -11 -10 -5 0 -7 -5 -4 -10 4
-6 11 -8 16 -5 14 10 11 -2 -7 -20 -12 -12 -19 -13 -30 -4 -22 18 -17 -4 7
-29 11 -13 17 -28 13 -35 -6 -8 -3 -8 8 1 18 14 13 46 -5 35 -6 -3 -7 -1 -3 5
10 17 26 15 26 -2 0 -8 5 -18 12 -22 8 -5 9 -1 5 12 -6 17 -6 17 5 3 7 -9 21
-15 31 -13 9 1 14 -2 11 -7 -3 -6 -1 -16 5 -23 8 -10 7 -17 -5 -27 -18 -15
-47 -22 -39 -9 5 9 -31 34 -49 35 -5 0 -12 9 -16 19 -4 14 -9 16 -14 8 -10
-17 -29 -15 -23 2 4 10 1 13 -7 10 -17 -6 -29 23 -14 32 7 5 8 2 3 -6 -6 -9
-4 -11 5 -5 9 5 11 4 6 -3 -5 -8 -1 -10 10 -5 11 4 13 8 6 11 -7 2 -10 8 -7
12 3 5 -6 7 -20 4 -14 -2 -25 0 -25 6 0 6 5 8 10 5 6 -3 10 -1 10 5 0 7 -7 9
-16 6 -8 -3 -13 -2 -9 3 6 11 -21 9 -31 -2 -13 -13 -24 -7 -36 18 -6 13 -19
27 -30 31 -10 3 -16 10 -12 15 4 6 10 6 19 -1 9 -7 16 -6 26 7 12 14 12 16 0
8 -10 -6 -12 -4 -6 6 7 11 5 11 -10 -1 -17 -13 -18 -13 -10 0 7 13 6 13 -7 2
-13 -11 -20 -9 -44 11 -23 20 -26 27 -16 40 10 11 9 17 -1 26 -8 6 -17 8 -21
4 -4 -4 -4 1 0 12 6 14 4 17 -8 13 -9 -4 -29 5 -49 23 -19 17 -28 27 -20 23
10 -5 12 -3 6 7 -7 11 -5 11 10 -1 17 -14 17 -14 4 7 -9 16 -16 19 -21 10 -6
-9 -8 -8 -8 3 0 13 -1 13 -10 0 -5 -8 -5 -19 -1 -25 8 -10 11 -45 4 -45 -2 0
-9 13 -14 29 -6 15 -21 33 -35 40 -14 6 -22 16 -19 22 4 5 1 18 -7 27 -16 21
-17 54 -1 59 8 3 11 -5 8 -26 -6 -52 34 -63 42 -11 1 8 10 20 19 27 10 7 14
13 10 13 -4 0 -4 5 -1 10 3 6 8 10 11 10 3 0 2 -4 -1 -10z m42 -25 c0 -8 -4
-12 -9 -9 -5 3 -6 10 -3 15 9 13 12 11 12 -6z m39 -17 c4 -7 4 -10 -1 -6 -4 4
-15 2 -24 -5 -14 -11 -14 -10 -2 6 16 20 18 21 27 5z m4444 -8 c0 -5 -5 -10
-11 -10 -5 0 -7 5 -4 10 3 6 8 10 11 10 2 0 4 -4 4 -10z m-50 -6 c0 -8 -19
-13 -24 -6 -3 5 1 9 9 9 8 0 15 -2 15 -3z m-4392 -29 c-3 -3 -9 2 -12 12 -6
14 -5 15 5 6 7 -7 10 -15 7 -18z m43 8 c13 -16 12 -17 -3 -4 -10 7 -18 15 -18
17 0 8 8 3 21 -13z m4383 -1 c3 -5 -1 -9 -9 -9 -8 0 -15 4 -15 9 0 4 4 8 9 8
6 0 12 -4 15 -8z m-93 -49 c13 -17 13 -17 -6 -3 -11 8 -22 16 -24 17 -2 2 0 3
6 3 6 0 17 -8 24 -17z m-4232 -18 c3 -3 -7 -4 -23 -1 -16 3 -31 8 -35 11 -3 3
7 4 23 1 16 -3 31 -8 35 -11z m-48 -22 c13 -15 12 -15 -8 -4 -24 12 -29 21
-14 21 5 0 15 -7 22 -17z m4243 9 c3 -5 -1 -9 -9 -9 -8 0 -12 4 -9 9 3 4 7 8
9 8 2 0 6 -4 9 -8z m6 -26 c0 -2 -8 -10 -17 -17 -16 -13 -17 -12 -4 4 13 16
21 21 21 13z m-69 -23 c13 -16 12 -17 -3 -4 -17 13 -22 21 -14 21 2 0 10 -8
17 -17z m-3997 -138 c-5 -11 -1 -14 12 -9 16 5 16 4 4 -5 -17 -12 -36 1 -26
18 10 16 16 13 10 -4z m4021 -45 c-11 -18 -22 -11 -19 13 4 33 4 33 15 14 5
-9 7 -22 4 -27z m-4090 -20 c-5 -8 -11 -8 -17 -2 -6 6 -7 16 -3 22 5 8 11 8
17 2 6 -6 7 -16 3 -22z m4115 14 c0 -8 -5 -12 -10 -9 -6 4 -8 11 -5 16 9 14
15 11 15 -7z m-216 -2 c3 -5 -1 -9 -9 -9 -8 0 -12 4 -9 9 3 4 7 8 9 8 2 0 6
-4 9 -8z m77 -55 c-10 -9 -11 -8 -5 6 3 10 9 15 12 12 3 -3 0 -11 -7 -18z m64
13 c4 -6 -5 -9 -19 -8 -15 1 -26 6 -26 10 0 12 38 10 45 -2z m-3809 -36 c1 -9
0 -13 -4 -10 -3 4 -7 14 -8 22 -1 9 0 13 4 10 3 -4 7 -14 8 -22z m3618 14 c-3
-4 -11 -5 -19 -1 -21 7 -19 12 4 10 11 0 18 -5 15 -9z m108 -38 c-20 -24 -17
-23 -32 -5 -11 13 -10 14 4 9 10 -4 18 0 22 10 3 9 10 14 15 11 4 -3 1 -15 -9
-25z m-237 -40 c-3 -5 -12 -10 -18 -10 -7 0 -6 4 3 10 19 12 23 12 15 0z m159
-32 c-10 -16 -20 -7 -22 19 -2 26 -1 26 12 8 8 -11 12 -23 10 -27z m-3684 12
c0 -5 -5 -10 -11 -10 -5 0 -7 5 -4 10 3 6 8 10 11 10 2 0 4 -4 4 -10z m53 -37
c-4 -11 -8 -13 -11 -5 -2 7 -8 10 -13 6 -5 -3 -9 -1 -9 5 0 11 21 20 32 14 4
-2 4 -11 1 -20z m181 19 c3 -5 -1 -9 -9 -9 -8 0 -12 4 -9 9 3 4 7 8 9 8 2 0 6
-4 9 -8z m3171 -40 c-3 -3 -11 0 -18 7 -9 10 -8 11 6 5 10 -3 15 -9 12 -12z
m35 -2 c0 -5 -2 -10 -4 -10 -3 0 -8 5 -11 10 -3 6 -1 10 4 10 6 0 11 -4 11
-10z m101 -20 c-12 -11 -27 -17 -32 -14 -14 8 0 24 15 18 8 -3 17 -1 21 5 3 6
9 11 13 11 4 -1 -4 -9 -17 -20z m-3287 -2 c-3 -4 -9 -8 -15 -8 -5 0 -9 4 -9 8
0 5 7 9 15 9 8 0 12 -4 9 -9z m54 -11 c17 6 15 -4 -3 -11 -9 -3 -19 3 -25 17
-10 19 -9 20 2 6 7 -9 19 -14 26 -12z m-38 -42 c-9 -11 -7 -14 9 -12 12 1 19
7 17 13 -3 8 3 10 16 6 14 -3 19 -1 14 6 -9 14 34 7 48 -9 8 -9 6 -9 -10 -1
-21 11 -34 7 -34 -10 0 -4 5 -7 11 -5 17 3 21 -40 4 -47 -8 -3 -17 -1 -20 5
-4 5 -11 7 -16 4 -5 -4 -9 -1 -9 5 0 6 -4 9 -8 6 -13 -8 -32 9 -37 32 -2 12
-7 27 -11 34 -4 7 -3 8 4 4 7 -4 12 -1 12 6 0 8 5 6 11 -5 8 -13 7 -22 -1 -32z
m2927 15 c2 -11 -1 -20 -5 -20 -4 0 -8 11 -8 25 0 28 8 24 13 -5z m47 22 c3
-5 -1 -9 -9 -9 -8 0 -12 4 -9 9 3 4 7 8 9 8 2 0 6 -4 9 -8z m-2760 -40 c2 -4
-4 -8 -14 -8 -10 0 -16 4 -14 8 3 4 9 8 14 8 5 0 11 -4 14 -8z m2600 0 c2 -4
-4 -8 -14 -8 -10 0 -16 4 -14 8 3 4 9 8 14 8 5 0 11 -4 14 -8z m76 4 c0 -2 -7
-7 -16 -10 -8 -3 -12 -2 -9 4 6 10 25 14 25 6z m-2585 -46 c3 -5 1 -10 -4 -10
-6 0 -11 5 -11 10 0 6 2 10 4 10 3 0 8 -4 11 -10z m82 -12 c2 -17 0 -19 -7 -8
-5 8 -6 18 -4 22 8 12 10 10 11 -14z m2323 12 c0 -5 -2 -10 -4 -10 -3 0 -8 5
-11 10 -3 6 -1 10 4 10 6 0 11 -4 11 -10z m-125 -9 c3 -5 2 -12 -3 -15 -5 -3
-9 1 -9 9 0 17 3 19 12 6z m82 -18 c-3 -2 -14 0 -24 7 -16 10 -16 11 0 6 9 -3
17 0 18 7 0 8 2 8 6 -1 3 -7 3 -16 0 -19z m-2163 1 c3 -8 2 -12 -4 -9 -6 3
-10 10 -10 16 0 14 7 11 14 -7z m2108 4 c-7 -7 -8 -17 -1 -29 9 -17 11 -17 44
2 19 12 32 26 28 32 -3 6 -1 7 6 3 9 -6 9 -11 1 -21 -8 -9 -8 -15 0 -20 7 -4
7 -12 0 -24 -5 -10 -6 -21 -3 -25 3 -3 2 -6 -3 -7 -30 -2 -49 -9 -52 -19 -2
-5 -7 -8 -12 -5 -4 2 -15 -4 -25 -15 -19 -21 -35 -26 -35 -12 0 5 10 14 23 21
12 6 15 10 6 7 -9 -2 -22 1 -28 7 -20 20 -50 17 -65 -5 -15 -21 -17 -21 -33
-5 -11 11 -13 17 -5 17 7 0 11 3 11 8 -4 23 3 34 17 28 10 -4 14 -2 11 6 -2 7
-10 12 -16 10 -7 -1 -10 2 -7 7 4 5 1 11 -6 13 -8 3 -6 7 5 11 9 3 16 3 14 -1
-1 -4 6 -18 16 -32 9 -13 17 -20 17 -15 0 5 5 4 11 -2 6 -6 18 -9 27 -5 11 4
14 1 9 -11 -5 -13 0 -15 26 -14 23 1 33 7 33 19 0 9 -5 14 -10 11 -5 -3 -6 -1
-3 4 4 7 -8 10 -33 9 -43 -2 -70 8 -57 21 5 4 12 2 16 -5 6 -9 17 -5 42 18 33
29 55 42 31 18z m28 -12 c0 -3 -4 -8 -10 -11 -5 -3 -10 -1 -10 4 0 6 5 11 10
11 6 0 10 -2 10 -4z m-2025 -26 c16 -17 16 -20 3 -15 -9 4 -19 13 -22 21 -7
19 -2 18 19 -6z m-105 1 c0 -5 -7 -11 -14 -14 -10 -4 -13 -1 -9 9 6 15 23 19
23 5z m2288 -11 c21 0 6 -13 -17 -15 -12 -1 -18 4 -16 14 5 26 6 27 12 14 2
-7 12 -13 21 -13z m-338 -12 c0 -6 -6 -5 -15 2 -8 7 -15 14 -15 16 0 2 7 1 15
-2 8 -4 15 -11 15 -16z m-1790 2 c0 -5 -2 -10 -4 -10 -3 0 -8 5 -11 10 -3 6
-1 10 4 10 6 0 11 -4 11 -10z m60 6 c0 -2 -7 -7 -16 -10 -8 -3 -12 -2 -9 4 6
10 25 14 25 6z m135 -5 c3 -6 -4 -19 -16 -30 l-21 -19 20 -13 c16 -10 18 -16
10 -26 -12 -15 -32 -18 -23 -4 3 5 1 12 -5 16 -6 4 -7 11 -4 17 5 7 1 9 -9 5
-9 -3 -16 -2 -14 3 1 5 -7 16 -18 25 -18 15 -18 15 13 0 29 -14 36 -13 33 8 0
4 5 6 12 5 6 -2 11 3 10 10 -3 14 3 16 12 3z m60 0 c3 -5 2 -12 -3 -15 -5 -3
-9 1 -9 9 0 17 3 19 12 6z m220 -1 c3 -5 1 -10 -4 -10 -6 0 -11 5 -11 10 0 6
2 10 4 10 3 0 8 -4 11 -10z m190 -8 c-3 -3 -11 0 -18 7 -9 10 -8 11 6 5 10 -3
15 -9 12 -12z m72 -4 c2 -17 0 -19 -7 -8 -5 8 -6 18 -4 22 8 12 10 10 11 -14z
m124 -2 c8 4 10 3 5 -4 -11 -18 -24 -14 -36 11 -10 21 -10 21 4 3 8 -10 20
-15 27 -10z m34 15 c3 -5 2 -12 -3 -15 -5 -3 -9 1 -9 9 0 17 3 19 12 6z m242
-6 c0 -8 -4 -12 -9 -9 -5 3 -6 10 -3 15 9 13 12 11 12 -6z m319 -24 c0 -38 0
-39 -22 -24 -15 10 -24 11 -29 3 -3 -6 -3 -9 2 -8 4 2 9 0 11 -4 1 -5 0 -8 -4
-8 -3 1 -14 -9 -24 -22 -18 -22 -20 -22 -17 -3 1 11 10 31 20 45 15 22 20 23
37 12 19 -11 20 -10 16 12 -3 19 0 36 9 36 0 0 1 -18 1 -39z m-903 16 c4 3 7
2 7 -4 0 -13 -48 -14 -56 -2 -3 5 3 6 12 2 13 -5 15 -3 9 8 -7 11 -6 12 7 2 8
-7 18 -10 21 -6z m1034 7 c-3 -3 -12 -4 -19 -1 -8 3 -5 6 6 6 11 1 17 -2 13
-5z m353 -13 c0 -4 -7 -8 -15 -8 -16 0 -20 9 -9 20 8 8 24 -1 24 -12z m-2264
-3 c4 -7 4 -10 -1 -6 -4 4 -15 2 -24 -5 -14 -11 -14 -10 -2 6 16 20 18 21 27
5z m969 -6 c-3 -3 -11 0 -18 7 -9 10 -8 11 6 5 10 -3 15 -9 12 -12z m73 -7
c-3 -3 -9 2 -12 12 -6 14 -5 15 5 6 7 -7 10 -15 7 -18z m67 15 c3 -6 -1 -7 -9
-4 -18 7 -21 14 -7 14 6 0 13 -4 16 -10z m185 0 c-8 -5 -19 -10 -25 -10 -5 0
-3 5 5 10 8 5 20 10 25 10 6 0 3 -5 -5 -10z m50 -2 c0 -4 -4 -8 -9 -8 -6 0
-12 4 -15 8 -3 5 1 9 9 9 8 0 15 -4 15 -9z m170 2 c8 -5 11 -10 5 -10 -5 0
-17 5 -25 10 -8 5 -10 10 -5 10 6 0 17 -5 25 -10z m40 0 c0 -5 -5 -10 -11 -10
-5 0 -7 5 -4 10 3 6 8 10 11 10 2 0 4 -4 4 -10z m110 4 c0 -8 -19 -13 -24 -6
-3 5 1 9 9 9 8 0 15 -2 15 -3z m-391 -29 c11 -2 23 1 27 6 4 6 11 6 20 -2 11
-9 18 -8 31 2 14 12 16 12 8 0 -6 -11 -4 -13 7 -9 18 7 29 1 51 -32 9 -13 17
-18 17 -11 0 11 3 11 17 0 10 -8 14 -9 10 -2 -4 6 -3 14 3 18 5 3 10 1 10 -4
0 -6 5 -11 11 -11 5 0 8 4 5 8 -4 7 35 9 52 3 1 -1 -6 -11 -17 -23 -16 -16
-23 -18 -34 -10 -7 6 -24 9 -37 7 -14 -3 -31 2 -41 11 -11 10 -23 13 -31 8
-15 -10 -47 -13 -46 -5 1 3 -2 14 -6 23 -7 16 -9 16 -25 -4 -12 -15 -20 -18
-25 -10 -4 7 -1 12 8 12 9 0 16 5 16 10 0 18 -25 5 -42 -22 -10 -16 -23 -28
-29 -28 -8 0 -8 -4 1 -15 8 -9 9 -15 2 -15 -6 0 -14 6 -19 13 -12 19 -14 47
-3 47 6 0 10 -6 10 -12 0 -7 9 -2 20 12 10 14 17 27 14 29 -2 3 -11 -4 -19
-15 -14 -19 -14 -19 -15 0 0 20 0 20 -14 0 -14 -18 -15 -18 -22 -1 -3 10 -2
23 5 30 6 6 11 7 11 1 0 -5 9 -10 21 -11 18 -2 19 0 7 15 -11 15 -11 16 3 4
10 -7 26 -15 38 -17z m-175 -3 c4 1 14 -8 21 -22 9 -15 14 -19 15 -10 0 13 1
13 10 0 7 -11 10 -11 10 -2 0 7 4 10 10 7 6 -3 7 1 3 10 -5 13 -7 14 -14 3 -7
-10 -9 -10 -9 2 0 13 -1 13 -10 0 -8 -13 -10 -13 -10 1 0 34 30 29 54 -9 24
-37 16 -63 -11 -40 -8 6 -16 8 -20 5 -3 -4 -15 -1 -27 5 -11 7 -25 12 -29 13
-5 0 -15 8 -22 18 -8 11 -15 14 -18 7 -3 -6 -4 -5 -2 2 1 7 8 12 14 11 6 -2
11 3 11 10 0 9 2 9 9 -1 4 -8 11 -12 15 -10z m-995 -9 c14 -15 15 -14 -24 -18
-23 -2 -31 2 -32 14 -2 21 38 23 56 4z m51 -4 c0 8 3 12 6 8 10 -10 -6 -26
-21 -21 -8 4 -12 11 -9 16 4 6 10 5 15 -3 7 -12 9 -12 9 0z m86 -1 c4 -7 4
-10 -1 -6 -4 4 -15 2 -24 -5 -14 -11 -14 -10 -2 6 16 20 18 21 27 5z m1779
-10 l-7 -23 17 23 c17 23 40 29 49 13 3 -5 -1 -12 -10 -15 -10 -4 -13 -2 -9 7
4 6 -2 1 -14 -13 -14 -18 -23 -22 -31 -14 -6 6 -8 18 -4 27 9 25 16 21 9 -5z
m-1724 -18 c6 0 7 5 3 12 -5 7 -3 8 6 3 10 -6 7 -12 -11 -26 -29 -22 -39 -24
-39 -6 0 18 24 41 28 27 2 -5 8 -10 13 -10z m409 -6 c-15 -17 -17 -17 -23 -1
-3 8 3 14 15 14 16 2 17 -1 8 -13z m953 1 c-3 -9 -8 -14 -10 -11 -3 3 -2 9 2
15 9 16 15 13 8 -4z m-1013 -4 c0 -5 -7 -11 -15 -15 -15 -5 -20 5 -8 17 9 10
23 9 23 -2z m650 -11 c0 -5 -5 -10 -11 -10 -5 0 -7 5 -4 10 3 6 8 10 11 10 2
0 4 -4 4 -10z"/>
<path d="M193 988 c-14 -16 -12 -23 10 -19 4 0 7 -5 7 -11 0 -8 5 -6 10 4 7
11 19 15 37 12 22 -4 24 -3 14 10 -7 8 -20 12 -28 9 -10 -4 -14 -2 -10 4 11
17 -22 10 -40 -9z m25 -4 c-1 -5 -9 -9 -16 -10 -10 -2 -11 1 -1 12 12 14 24
13 17 -2z"/>
<path d="M260 927 c0 -3 12 -12 26 -22 15 -9 23 -12 20 -6 -7 11 -46 35 -46
28z"/>
<path d="M343 880 c14 -25 37 -34 37 -15 0 6 -6 10 -12 10 -7 0 -19 7 -27 15
-9 10 -9 7 2 -10z"/>
<path d="M406 843 c-4 -4 -16 -8 -27 -8 -20 0 -22 -5 -13 -30 5 -12 9 -11 23
7 12 14 20 17 25 10 3 -6 1 -14 -5 -18 -8 -5 -9 -3 -4 6 5 9 4 11 -3 6 -20
-12 -13 -27 11 -22 12 2 30 -2 39 -8 15 -11 15 -13 -3 -24 -11 -7 -17 -17 -14
-22 4 -6 11 -7 17 -4 7 5 9 1 5 -9 -4 -12 0 -15 20 -13 19 2 27 9 28 25 1 11
-1 21 -4 21 -10 0 -67 54 -77 73 -6 10 -14 14 -18 10z m-16 -19 c0 -8 -19 -13
-24 -6 -3 5 1 9 9 9 8 0 15 -2 15 -3z m92 -71 c-10 -4 -9 -9 5 -20 16 -13 15
-13 -7 -1 -14 7 -29 11 -33 10 -5 -1 -6 1 -4 6 3 4 16 8 29 9 13 0 17 -1 10
-4z"/>
<path d="M566 633 c-6 -14 -5 -15 5 -6 7 7 10 15 7 18 -3 3 -9 -2 -12 -12z"/>
<path d="M625 610 c-2 -4 9 -16 24 -28 22 -16 32 -18 39 -9 7 8 7 17 -1 27
-13 16 -54 23 -62 10z m58 -33 c-3 -4 -6 -7 -7 -5 -1 2 -8 12 -16 22 -14 18
-14 18 7 6 12 -8 19 -18 16 -23z"/>
<path d="M995 370 c-4 -7 2 -14 14 -17 12 -3 18 -10 14 -17 -3 -6 -2 -7 2 -3
5 4 10 15 11 23 1 9 0 13 -3 10 -4 -3 -12 -1 -19 5 -8 7 -14 7 -19 -1z"/>
<path d="M3542 287 c-8 -10 -6 -13 7 -13 11 0 17 6 14 13 -3 7 -6 13 -8 13 -1
0 -7 -6 -13 -13z"/>
<path d="M3610 277 c-14 -11 -14 -14 3 -30 18 -18 19 -18 12 2 -3 12 -3 20 2
19 4 -2 9 1 11 7 5 15 -11 16 -28 2z"/>
<path d="M3439 250 c0 -3 -2 -15 -5 -28 l-4 -23 22 21 c12 11 18 23 15 27 -4
3 -7 0 -7 -8 0 -11 -2 -11 -10 1 -5 8 -10 13 -11 10z"/>
<path d="M3590 239 c0 -5 5 -7 10 -4 6 3 10 8 10 11 0 2 -4 4 -10 4 -5 0 -10
-5 -10 -11z"/>
<path d="M2644 199 c-6 -10 6 -16 28 -15 10 1 17 5 15 11 -3 11 -36 15 -43 4z"/>
<path d="M2805 160 c3 -5 8 -10 11 -10 2 0 4 5 4 10 0 6 -5 10 -11 10 -5 0 -7
-4 -4 -10z"/>
<path d="M2384 199 c1 -7 9 -13 18 -15 11 -1 15 3 11 13 -4 11 -8 12 -13 3 -6
-9 -9 -9 -13 -1 -4 8 -5 8 -3 0z"/>
<path d="M86 1122 c-3 -5 1 -9 9 -9 8 0 12 4 9 9 -3 4 -7 8 -9 8 -2 0 -6 -4
-9 -8z"/>
<path d="M4973 1055 c-3 -9 -3 -19 1 -22 3 -4 6 1 6 11 0 10 5 14 12 10 7 -4
8 -3 4 4 -10 16 -15 15 -23 -3z"/>
<path d="M35 1050 c3 -5 8 -10 11 -10 2 0 4 5 4 10 0 6 -5 10 -11 10 -5 0 -7
-4 -4 -10z"/>
<path d="M4845 1050 c-3 -5 -3 -10 1 -10 4 0 0 -8 -8 -17 -9 -10 -14 -26 -13
-36 2 -9 -1 -15 -6 -11 -5 3 -9 12 -9 20 0 8 -7 14 -15 14 -21 0 -19 -17 5
-30 11 -6 20 -16 20 -23 0 -8 -3 -7 -9 2 -8 12 -12 12 -25 2 -13 -11 -16 -11
-16 0 0 8 -5 6 -14 -6 -13 -18 -13 -18 -24 1 -8 15 -13 16 -23 7 -10 -10 -9
-17 6 -33 11 -12 13 -21 7 -21 -7 -1 -17 -2 -24 -3 -7 0 -21 -17 -32 -36 -20
-34 -20 -35 -1 -20 18 14 19 13 8 -1 -7 -9 -10 -18 -7 -22 5 -5 -4 -4 -35 2
-2 1 2 7 8 15 7 9 8 17 3 20 -11 7 -25 -21 -17 -34 3 -5 -4 -12 -16 -15 -11
-4 -18 -13 -16 -20 3 -7 1 -17 -5 -23 -8 -8 -6 -13 8 -17 10 -4 28 -11 39 -17
11 -6 17 -7 13 -3 -7 8 22 45 35 45 5 0 4 -7 -3 -15 -7 -8 -8 -15 -3 -15 5 0
16 11 23 25 7 13 18 22 23 18 6 -3 7 -1 3 6 -4 6 0 14 8 17 9 3 13 10 10 15
-3 5 -1 9 5 9 5 0 12 -5 14 -10 3 -6 4 -5 3 2 -2 7 -10 13 -19 13 -9 0 -22 6
-28 12 -9 9 -7 12 12 11 13 -1 30 -6 37 -11 11 -9 14 -3 11 19 0 4 5 11 13 16
10 8 10 9 -2 5 -8 -2 -14 -10 -12 -17 1 -6 -2 -10 -8 -8 -21 7 -13 23 20 42
l32 19 -7 -23 c-5 -16 -4 -20 5 -15 7 4 9 17 5 34 l-7 26 29 -25 c17 -16 21
-17 11 -5 -16 20 -16 21 2 33 25 15 38 16 22 0 -7 -7 -12 -16 -12 -22 0 -5 6
-2 13 8 10 14 13 48 8 100 -1 5 -4 6 -8 3 -3 -4 -12 -2 -19 4 -8 7 -14 7 -19
-1z m33 -31 c-7 -4 -16 -5 -22 -2 -5 4 -6 1 -1 -7 6 -9 4 -11 -5 -5 -8 5 -11
4 -6 -3 3 -6 2 -13 -3 -16 -13 -8 -8 19 7 36 6 8 8 18 4 23 -4 4 3 2 15 -6 15
-9 18 -16 11 -20z m-14 -45 c-14 -14 -28 -23 -31 -20 -8 7 39 56 49 50 5 -3
-3 -17 -18 -30z m-61 -41 c-7 -2 -16 -5 -20 -5 -5 -1 -18 -14 -29 -30 -15 -20
-24 -25 -27 -16 -4 10 -8 10 -16 -2 -7 -10 -6 -19 6 -32 14 -15 14 -19 -3 -41
-11 -13 -25 -22 -32 -19 -7 2 -21 -7 -32 -20 -11 -12 -19 -18 -20 -11 0 7 -9
10 -21 8 -16 -3 -18 -1 -10 9 6 7 7 17 3 21 -4 5 -2 5 5 2 6 -4 13 -1 15 5 3
7 14 13 26 13 12 0 21 3 20 6 -2 3 3 13 10 22 8 9 10 22 6 28 -5 8 -3 9 6 4
10 -6 12 -4 7 9 -4 9 -3 15 2 12 4 -3 17 1 27 9 19 15 19 15 0 30 -11 8 -15
15 -9 15 7 0 15 -5 18 -10 5 -8 11 -7 21 1 8 6 14 8 14 3 0 -4 5 -3 12 4 9 9
15 9 23 1 7 -8 6 -13 -2 -16z"/>
<path d="M4745 914 c-9 -15 -12 -23 -6 -20 11 7 35 46 28 46 -3 0 -12 -12 -22
-26z"/>
<path d="M4705 840 c6 -10 4 -12 -11 -6 -15 6 -17 5 -6 -5 9 -9 15 -10 23 -2
8 8 7 13 -2 18 -8 6 -10 4 -4 -5z"/>
<path d="M4646 795 c-3 -9 -10 -14 -15 -10 -5 3 -12 1 -15 -4 -8 -13 22 -7 36
7 6 6 9 14 6 17 -3 3 -8 -1 -12 -10z"/>
<path d="M4678 803 c7 -3 16 -2 19 1 4 3 -2 6 -13 5 -11 0 -14 -3 -6 -6z"/>
<path d="M4945 1051 c-3 -5 -2 -12 3 -15 5 -3 9 1 9 9 0 17 -3 19 -12 6z"/>
<path d="M0 1046 c0 -2 8 -10 18 -17 15 -13 16 -12 3 4 -13 16 -21 21 -21 13z"/>
<path d="M4923 1024 c28 -28 37 -51 15 -38 -7 4 -10 3 -5 -1 4 -5 16 -9 26
-10 18 -1 17 1 -5 31 -14 18 -32 35 -41 38 -9 4 -5 -5 10 -20z"/>
<path d="M31 1007 c-13 -21 -12 -21 5 -5 10 10 16 20 13 22 -3 3 -11 -5 -18
-17z"/>
<path d="M81 1012 c-1 -8 -6 -10 -13 -6 -10 5 -10 4 -1 -6 15 -16 28 -8 20 12
-4 11 -6 11 -6 0z"/>
<path d="M4911 1004 c0 -11 3 -14 6 -6 3 7 2 16 -1 19 -3 4 -6 -2 -5 -13z"/>
<path d="M39 973 c-13 -16 -12 -17 4 -4 9 7 17 15 17 17 0 8 -8 3 -21 -13z"/>
<path d="M95 981 c-6 -11 13 -26 22 -17 4 3 1 6 -6 6 -7 0 -9 5 -6 10 3 6 4
10 1 10 -3 0 -7 -4 -11 -9z"/>
<path d="M4910 966 c0 -2 7 -7 16 -10 8 -3 12 -2 9 4 -6 10 -25 14 -25 6z"/>
<path d="M13 935 c0 -8 4 -12 9 -9 5 3 6 10 3 15 -9 13 -12 11 -12 -6z"/>
<path d="M4887 926 c-3 -8 0 -17 7 -19 10 -4 12 1 9 14 -6 23 -9 24 -16 5z"/>
<path d="M39 913 c-13 -16 -12 -17 4 -4 9 7 17 15 17 17 0 8 -8 3 -21 -13z"/>
<path d="M170 926 c0 -2 7 -7 16 -10 8 -3 12 -2 9 4 -6 10 -25 14 -25 6z"/>
<path d="M116 901 c-3 -5 2 -15 12 -22 15 -12 16 -12 5 2 -7 9 -10 19 -6 22 3
4 4 7 0 7 -3 0 -8 -4 -11 -9z"/>
<path d="M140 906 c0 -2 8 -10 18 -17 15 -13 16 -12 3 4 -13 16 -21 21 -21 13z"/>
<path d="M181 890 c16 -33 16 -33 23 -13 4 9 4 14 0 10 -4 -4 -13 1 -21 11
-12 15 -13 14 -2 -8z"/>
<path d="M4837 896 c-3 -8 1 -22 9 -33 14 -17 15 -17 6 2 -5 11 -7 26 -5 33 6
17 -4 15 -10 -2z"/>
<path d="M4954 902 c4 -3 14 -7 22 -8 9 -1 13 0 10 4 -4 3 -14 7 -22 8 -9 1
-13 0 -10 -4z"/>
<path d="M4868 884 c6 -3 10 -10 7 -14 -3 -5 -1 -12 5 -15 6 -4 9 -1 8 7 -2 7
4 12 12 10 8 -2 12 0 7 4 -4 4 -18 9 -30 10 -12 2 -16 0 -9 -2z"/>
<path d="M4796 865 c-9 -26 -7 -32 5 -12 6 10 9 21 6 23 -2 3 -7 -2 -11 -11z"/>
<path d="M150 866 c0 -2 7 -7 16 -10 8 -3 12 -2 9 4 -6 10 -25 14 -25 6z"/>
<path d="M4810 842 c0 -5 7 -9 15 -9 8 0 12 4 9 9 -3 4 -9 8 -15 8 -5 0 -9 -4
-9 -8z"/>
<path d="M135 820 c-3 -5 -1 -10 4 -10 6 0 11 5 11 10 0 6 -2 10 -4 10 -3 0
-8 -4 -11 -10z"/>
<path d="M234 814 c1 -7 6 -17 10 -21 4 -4 6 -1 4 7 -2 9 3 14 12 12 8 -2 11
0 7 4 -13 14 -35 12 -33 -2z"/>
<path d="M4795 811 c-3 -5 -18 -7 -32 -5 -15 3 -24 2 -21 -2 14 -13 65 -12 65
2 0 16 -4 18 -12 5z"/>
<path d="M295 781 c-6 -11 13 -26 22 -17 4 3 1 6 -6 6 -7 0 -9 5 -6 10 3 6 4
10 1 10 -3 0 -7 -4 -11 -9z"/>
<path d="M4734 775 c-4 -8 -11 -12 -17 -8 -6 3 -7 1 -3 -6 4 -6 11 -9 16 -6 4
3 11 -1 14 -7 3 -7 3 -2 0 11 -5 17 -3 21 6 16 9 -5 11 -4 6 3 -10 16 -15 15
-22 -3z"/>
<path d="M255 771 c-3 -5 -2 -12 3 -15 5 -3 9 1 9 9 0 17 -3 19 -12 6z"/>
<path d="M4694 736 c-3 -8 -1 -22 4 -32 7 -13 9 -10 8 15 -1 34 -4 38 -12 17z"/>
<path d="M4790 739 c0 -5 5 -7 10 -4 6 3 10 8 10 11 0 2 -4 4 -10 4 -5 0 -10
-5 -10 -11z"/>
<path d="M343 718 c1 -15 6 -23 11 -18 4 4 4 16 -2 26 -9 16 -10 14 -9 -8z"/>
<path d="M4656 725 c-3 -8 -1 -15 4 -15 6 0 10 7 10 15 0 8 -2 15 -4 15 -2 0
-6 -7 -10 -15z"/>
<path d="M392 716 c7 -8 15 -12 17 -11 5 6 -10 25 -20 25 -5 0 -4 -6 3 -14z"/>
<path d="M4718 723 c7 -3 16 -2 19 1 4 3 -2 6 -13 5 -11 0 -14 -3 -6 -6z"/>
<path d="M4773 705 c0 -8 4 -12 9 -9 5 3 6 10 3 15 -9 13 -12 11 -12 -6z"/>
<path d="M295 699 c-3 -4 2 -6 10 -5 21 3 28 13 10 13 -9 0 -18 -4 -20 -8z"/>
<path d="M4438 676 c-3 -14 -2 -26 2 -26 13 0 21 33 12 42 -6 6 -11 -1 -14
-16z"/>
<path d="M4470 679 c-11 -19 -10 -20 10 -9 11 6 18 15 15 21 -9 13 -13 11 -25
-12z"/>
<path d="M4660 696 c0 -2 7 -7 16 -10 8 -3 12 -2 9 4 -6 10 -25 14 -25 6z"/>
<path d="M375 680 c3 -5 8 -10 11 -10 2 0 4 5 4 10 0 6 -5 10 -11 10 -5 0 -7
-4 -4 -10z"/>
<path d="M405 680 c-3 -6 1 -7 9 -4 18 7 21 14 7 14 -6 0 -13 -4 -16 -10z"/>
<path d="M4637 669 c7 -7 15 -10 18 -7 3 3 -2 9 -12 12 -14 6 -15 5 -6 -5z"/>
<path d="M414 659 c-4 -7 -3 -9 4 -5 6 3 13 -2 15 -11 4 -16 5 -16 6 -1 1 21
-15 32 -25 17z"/>
<path d="M453 645 c0 -8 4 -12 9 -9 5 3 6 10 3 15 -9 13 -12 11 -12 -6z"/>
<path d="M355 640 c-3 -5 -1 -10 4 -10 6 0 11 5 11 10 0 6 -2 10 -4 10 -3 0
-8 -4 -11 -10z"/>
<path d="M4636 642 c-3 -5 1 -9 9 -9 8 0 12 4 9 9 -3 4 -7 8 -9 8 -2 0 -6 -4
-9 -8z"/>
<path d="M396 618 c3 -5 10 -6 15 -3 13 9 11 12 -6 12 -8 0 -12 -4 -9 -9z"/>
<path d="M474 622 c3 -5 0 -13 -6 -15 -9 -4 -10 -6 -1 -6 17 -1 25 16 12 25
-7 4 -9 3 -5 -4z"/>
<path d="M4380 605 c-7 -8 -16 -13 -20 -10 -4 3 -14 -2 -21 -11 -11 -14 -10
-15 7 -12 10 1 25 11 32 21 7 9 18 14 24 11 7 -4 8 -2 4 4 -9 15 -11 15 -26
-3z"/>
<path d="M4550 611 c0 -9 30 -24 36 -18 2 1 -6 8 -16 15 -11 7 -20 8 -20 3z"/>
<path d="M4512 596 c7 -8 15 -12 17 -11 5 6 -10 25 -20 25 -5 0 -4 -6 3 -14z"/>
<path d="M416 578 c3 -5 10 -6 15 -3 13 9 11 12 -6 12 -8 0 -12 -4 -9 -9z"/>
<path d="M4585 560 c10 -11 20 -20 23 -20 3 0 -3 9 -13 20 -10 11 -20 20 -23
20 -3 0 3 -9 13 -20z"/>
<path d="M4460 555 c-7 -9 -11 -17 -8 -20 2 -2 12 4 21 15 9 11 13 20 8 20 -5
0 -14 -7 -21 -15z"/>
<path d="M4500 556 c0 -2 7 -7 16 -10 8 -3 12 -2 9 4 -6 10 -25 14 -25 6z"/>
<path d="M558 543 c7 -3 16 -2 19 1 4 3 -2 6 -13 5 -11 0 -14 -3 -6 -6z"/>
<path d="M4477 535 c-4 -8 -3 -16 1 -19 4 -3 9 4 9 15 2 23 -3 25 -10 4z"/>
<path d="M4549 537 c6 -8 7 -18 3 -22 -4 -5 -1 -5 6 -1 10 6 10 11 1 22 -6 8
-14 14 -16 14 -3 0 0 -6 6 -13z"/>
<path d="M440 520 c-9 -6 -10 -10 -3 -10 6 0 15 5 18 10 8 12 4 12 -15 0z"/>
<path d="M559 513 c-13 -17 -13 -17 6 -3 11 8 22 16 24 17 2 2 0 3 -6 3 -6 0
-17 -8 -24 -17z"/>
<path d="M601 517 c-1 -12 -6 -16 -13 -11 -7 4 -9 3 -5 -1 12 -13 36 -15 44
-3 3 6 1 8 -5 4 -6 -3 -13 2 -15 11 -4 17 -5 17 -6 0z"/>
<path d="M766 503 c16 -15 38 -29 49 -30 20 -2 13 6 -40 44 -29 21 -35 11 -9
-14z"/>
<path d="M4300 522 c0 -5 7 -9 15 -9 8 0 12 4 9 9 -3 4 -9 8 -15 8 -5 0 -9 -4
-9 -8z"/>
<path d="M493 505 c0 -8 4 -12 9 -9 5 3 6 10 3 15 -9 13 -12 11 -12 -6z"/>
<path d="M4575 500 c-3 -5 -1 -10 4 -10 6 0 11 5 11 10 0 6 -2 10 -4 10 -3 0
-8 -4 -11 -10z"/>
<path d="M4402 484 c-7 -8 -8 -14 -3 -14 10 0 25 19 20 25 -2 1 -10 -3 -17
-11z"/>
<path d="M4439 473 c-12 -16 -12 -17 2 -6 9 7 19 10 22 6 4 -3 7 -1 7 5 0 17
-16 15 -31 -5z"/>
<path d="M4345 469 c-4 -6 -4 -13 -1 -16 3 -4 6 -1 6 6 0 7 5 9 12 5 7 -4 8
-3 4 4 -9 15 -13 15 -21 1z"/>
<path d="M696 443 c-6 -14 -5 -15 5 -6 7 7 10 15 7 18 -3 3 -9 -2 -12 -12z"/>
<path d="M810 448 c0 -8 6 -20 13 -27 10 -12 8 -13 -8 -7 -16 6 -18 5 -7 -5
17 -18 15 -34 -3 -19 -9 7 -15 8 -15 2 0 -5 7 -13 16 -16 11 -4 18 1 21 14 3
11 10 20 15 20 5 0 7 -4 4 -9 -4 -5 5 -8 19 -6 14 1 25 -2 25 -6 0 -5 -5 -9
-11 -9 -8 0 -7 -6 2 -17 8 -9 13 -18 11 -20 -2 -3 -1 -7 2 -10 3 -3 3 7 0 22
-3 16 -1 24 5 21 5 -4 12 -2 16 4 8 13 -42 63 -55 55 -6 -3 -10 -1 -10 6 0 7
-3 9 -7 6 -3 -4 -12 -2 -20 4 -10 9 -13 8 -13 -3z m52 -23 c27 -6 44 -22 23
-22 -8 0 -15 4 -15 9 0 5 -4 7 -9 4 -4 -3 -17 2 -27 10 -10 9 -13 13 -7 9 7
-3 23 -8 35 -10z"/>
<path d="M4161 451 c-8 -5 -9 -11 -3 -15 5 -3 12 1 16 9 6 17 6 18 -13 6z"/>
<path d="M4371 451 c-8 -5 -9 -11 -3 -15 5 -3 12 1 16 9 6 17 6 18 -13 6z"/>
<path d="M4413 445 c0 -8 4 -12 9 -9 5 3 6 10 3 15 -9 13 -12 11 -12 -6z"/>
<path d="M4446 438 c3 -5 10 -6 15 -3 13 9 11 12 -6 12 -8 0 -12 -4 -9 -9z"/>
<path d="M616 422 c-3 -5 1 -9 9 -9 8 0 12 4 9 9 -3 4 -7 8 -9 8 -2 0 -6 -4
-9 -8z"/>
<path d="M710 426 c0 -2 7 -7 16 -10 8 -3 12 -2 9 4 -6 10 -25 14 -25 6z"/>
<path d="M690 416 c0 -2 8 -10 18 -17 15 -13 16 -12 3 4 -13 16 -21 21 -21 13z"/>
<path d="M4235 410 c-3 -5 -1 -10 4 -10 6 0 11 5 11 10 0 6 -2 10 -4 10 -3 0
-8 -4 -11 -10z"/>
<path d="M4375 400 c2 -27 10 -33 12 -10 1 11 -2 22 -6 24 -4 3 -7 -4 -6 -14z"/>
<path d="M741 401 c-10 -7 -7 -9 12 -8 14 1 23 5 20 10 -6 9 -15 9 -32 -2z"/>
<path d="M3982 380 c-18 -16 -32 -24 -32 -17 0 6 -8 0 -17 -13 -10 -14 -18
-29 -18 -34 0 -5 -6 -11 -14 -14 -8 -3 -11 0 -7 6 3 6 2 13 -4 17 -6 4 -7 12
-3 18 3 7 -2 5 -13 -4 -10 -9 -26 -14 -34 -12 -8 3 -5 -2 7 -11 14 -10 20 -24
18 -37 -4 -20 -3 -20 14 -5 26 24 37 20 15 -6 -10 -12 -14 -18 -7 -15 6 4 13
4 16 0 2 -5 2 -3 1 4 -2 7 1 15 7 18 5 4 7 11 4 16 -4 5 0 12 9 15 9 3 12 12
8 22 -5 15 -4 16 13 2 11 -9 16 -10 11 -2 -4 6 -2 12 3 12 6 0 11 7 11 15 0 8
7 15 16 15 14 0 14 -3 4 -15 -7 -8 -9 -15 -4 -15 5 0 2 -4 -6 -10 -11 -7 -8
-11 15 -20 23 -9 31 -8 44 6 9 9 12 14 6 11 -13 -6 -38 20 -26 28 5 3 23 -7
40 -21 17 -14 31 -21 31 -16 0 6 -6 12 -12 15 -10 3 -10 8 2 21 12 16 12 19
-3 28 -10 5 -15 13 -12 19 4 5 2 9 -3 9 -6 0 -13 -8 -17 -17 -6 -17 -7 -17
-19 -1 -12 16 -15 15 -44 -12z m43 -5 c6 0 15 4 21 8 7 4 17 0 23 -7 9 -11 9
-16 0 -21 -6 -4 -15 -2 -19 5 -10 17 -15 17 -34 1 -15 -13 -15 -15 0 -32 17
-19 9 -26 -11 -11 -12 8 -13 27 -3 37 4 4 4 14 1 23 -3 10 -2 13 4 7 4 -6 13
-10 18 -10z m-139 -70 c1 -8 -3 -18 -8 -22 -6 -3 -8 -1 -4 5 3 6 2 13 -4 17
-6 4 -8 11 -4 16 7 12 17 4 20 -16z"/>
<path d="M4218 388 c5 -5 16 -8 23 -6 8 3 3 7 -10 11 -17 4 -21 3 -13 -5z"/>
<path d="M4335 380 c3 -5 8 -10 11 -10 2 0 4 5 4 10 0 6 -5 10 -11 10 -5 0 -7
-4 -4 -10z"/>
<path d="M850 369 c0 -5 -4 -8 -9 -4 -5 3 -12 1 -15 -4 -4 -5 2 -8 11 -7 15 3
33 26 19 26 -3 0 -6 -5 -6 -11z"/>
<path d="M4201 364 c0 -11 3 -14 6 -6 3 7 2 16 -1 19 -3 4 -6 -2 -5 -13z"/>
<path d="M855 340 c-3 -6 1 -13 9 -16 9 -3 13 -11 9 -17 -4 -6 -1 -7 7 -2 10
6 10 11 -3 20 -9 7 -14 15 -10 18 3 4 4 7 0 7 -3 0 -9 -5 -12 -10z"/>
<path d="M4095 340 c3 -5 11 -10 16 -10 6 0 7 5 4 10 -3 6 -11 10 -16 10 -6 0
-7 -4 -4 -10z"/>
<path d="M819 338 c-6 -20 -6 -39 0 -42 4 -3 7 6 7 20 0 20 -4 32 -7 22z"/>
<path d="M1179 339 c0 -2 -2 -12 -4 -21 -3 -18 21 -45 32 -35 3 4 11 2 18 -3
8 -7 12 -5 12 5 0 8 -4 12 -8 9 -4 -2 -17 8 -28 22 -12 15 -21 25 -22 23z m26
-39 c3 -5 1 -10 -4 -10 -6 0 -11 5 -11 10 0 6 2 10 4 10 3 0 8 -4 11 -10z"/>
<path d="M3767 323 c-10 -16 8 -28 46 -29 39 -2 50 9 20 20 -10 3 -24 9 -32
12 -10 5 -12 2 -8 -12 7 -18 6 -18 -7 -1 -8 10 -16 14 -19 10z"/>
<path d="M4176 322 c-3 -5 1 -9 9 -9 8 0 12 4 9 9 -3 4 -7 8 -9 8 -2 0 -6 -4
-9 -8z"/>
<path d="M915 300 c-3 -5 -1 -10 4 -10 6 0 11 5 11 10 0 6 -2 10 -4 10 -3 0
-8 -4 -11 -10z"/>
<path d="M3945 302 c-5 -4 -11 -16 -12 -27 -1 -11 0 -14 3 -7 3 6 10 10 15 7
5 -4 6 1 3 9 -3 9 -1 16 5 16 10 0 15 -14 12 -33 -1 -5 3 -6 9 -2 7 4 7 12 0
26 -11 20 -19 23 -35 11z"/>
<path d="M4106 297 c3 -10 9 -15 12 -12 3 3 0 11 -7 18 -10 9 -11 8 -5 -6z"/>
<path d="M4210 300 c0 -5 5 -10 11 -10 5 0 7 5 4 10 -3 6 -8 10 -11 10 -2 0
-4 -4 -4 -10z"/>
<path d="M935 281 c-3 -5 -2 -12 3 -15 5 -3 9 1 9 9 0 17 -3 19 -12 6z"/>
<path d="M1026 264 c-5 -14 -4 -15 9 -4 17 14 19 20 6 20 -5 0 -12 -7 -15 -16z"/>
<path d="M1400 255 c-7 -8 -11 -15 -9 -16 42 -8 46 -6 30 19 -6 10 -10 10 -21
-3z"/>
<path d="M4066 259 c4 -8 30 -6 38 2 3 3 -5 5 -19 5 -13 0 -22 -3 -19 -7z"/>
<path d="M977 250 c7 -8 20 -15 29 -16 9 -1 13 1 9 4 -4 4 -10 7 -13 7 -4 0
-14 4 -22 9 -12 7 -13 6 -3 -4z"/>
<path d="M3300 251 c0 -10 39 -36 45 -29 2 2 -8 11 -21 21 -13 10 -24 13 -24
8z"/>
<path d="M3782 248 c-7 -7 -12 -17 -12 -22 0 -6 5 -3 11 7 7 12 17 16 32 12
17 -5 19 -4 7 4 -19 14 -23 14 -38 -1z"/>
<path d="M1087 233 c3 -7 6 -13 8 -13 2 0 5 6 8 13 3 8 -1 14 -8 14 -7 0 -11
-6 -8 -14z"/>
<path d="M3380 241 c0 -6 4 -13 10 -16 6 -3 7 1 4 9 -7 18 -14 21 -14 7z"/>
<path d="M3850 240 c0 -5 5 -10 10 -10 6 0 10 5 10 10 0 6 -4 10 -10 10 -5 0
-10 -4 -10 -10z"/>
<path d="M3990 239 c0 -5 5 -7 10 -4 6 3 10 8 10 11 0 2 -4 4 -10 4 -5 0 -10
-5 -10 -11z"/>
<path d="M1593 225 c0 -8 7 -15 15 -15 12 0 12 3 2 15 -7 8 -13 15 -15 15 -1
0 -2 -7 -2 -15z"/>
<path d="M4075 229 c-4 -6 -5 -12 -2 -15 2 -3 7 2 10 11 7 17 1 20 -8 4z"/>
<path d="M1670 225 c0 -5 5 -17 10 -25 5 -8 10 -10 10 -5 0 6 -5 17 -10 25 -5
8 -10 11 -10 5z"/>
<path d="M3129 217 c-9 -7 -21 -22 -28 -34 -6 -12 -17 -20 -24 -17 -17 6 -57
-32 -56 -54 0 -12 2 -13 6 -3 8 20 36 51 46 51 4 0 5 -5 1 -12 -4 -6 -3 -8 4
-4 5 3 12 3 15 -1 2 -5 2 -2 1 4 -4 14 30 36 40 26 12 -13 6 -22 -11 -17 -15
5 -15 4 -3 -4 8 -6 18 -8 22 -6 13 8 9 26 -8 38 -14 11 -14 13 0 25 14 12 16
12 10 -3 -3 -9 -2 -16 4 -16 18 0 21 -27 5 -49 -12 -17 -18 -20 -29 -10 -8 7
-14 7 -14 1 0 -19 32 -23 46 -5 15 20 16 23 17 56 1 24 -9 47 -21 47 -4 0 -14
-6 -23 -13z"/>
<path d="M3790 219 c0 -5 5 -7 10 -4 6 3 10 8 10 11 0 2 -4 4 -10 4 -5 0 -10
-5 -10 -11z"/>
<path d="M1141 198 c-13 -20 -12 -22 1 -11 8 7 18 10 22 6 4 -4 4 0 0 10 -8
21 -6 21 -23 -5z"/>
<path d="M2099 215 c-1 -3 -2 -11 -3 -17 -1 -7 -9 -12 -19 -12 -9 1 -14 -2
-11 -7 3 -5 -5 -14 -18 -19 -22 -10 -22 -10 -1 -6 12 2 30 -2 40 -9 15 -10 20
-10 32 2 12 13 11 14 -10 8 -21 -7 -22 -6 -10 8 16 20 54 5 45 -17 -3 -8 0
-17 5 -21 6 -3 8 -11 5 -17 -4 -7 -2 -8 5 -4 6 4 9 12 6 17 -4 5 -1 9 4 9 6 0
11 5 11 11 0 8 -5 8 -15 -1 -8 -7 -15 -8 -15 -2 0 5 6 15 14 21 11 10 17 8 26
-6 9 -15 10 -14 4 7 -6 23 -6 24 11 10 11 -8 16 -10 12 -3 -4 6 -3 14 3 18 5
3 10 0 10 -7 0 -8 5 -6 11 5 6 10 8 21 5 24 -3 4 -6 0 -6 -8 0 -11 -2 -11 -10
1 -8 12 -10 12 -10 1 0 -10 -3 -11 -14 -2 -11 9 -16 9 -21 0 -6 -8 -10 -7 -16
2 -7 11 -9 11 -9 1 0 -7 -4 -11 -9 -7 -5 3 -13 1 -16 -5 -5 -8 -11 -7 -21 1
-7 6 -11 15 -8 20 3 5 3 9 0 9 -3 0 -7 -2 -7 -5z m105 -23 c3 -5 -1 -9 -9 -9
-8 0 -12 4 -9 9 3 4 7 8 9 8 2 0 6 -4 9 -8z m-104 -17 c-7 -8 -17 -15 -23 -15
-6 0 -2 7 9 15 25 19 30 19 14 0z m68 3 c-4 -12 -22 -12 -26 0 -1 5 4 9 13 9
9 0 14 -4 13 -9z"/>
<path d="M3876 207 c3 -10 9 -15 12 -12 3 3 0 11 -7 18 -10 9 -11 8 -5 -6z"/>
<path d="M1052 191 c7 -9 13 -18 15 -20 1 -2 1 5 0 16 0 11 -7 20 -14 20 -10
0 -10 -4 -1 -16z"/>
<path d="M1229 204 c6 -3 7 -12 4 -20 -3 -8 -1 -14 5 -14 14 0 8 33 -7 36 -6
1 -7 0 -2 -2z"/>
<path d="M2285 200 c4 -6 11 -8 16 -5 14 9 11 15 -7 15 -8 0 -12 -5 -9 -10z"/>
<path d="M1191 193 c-1 -17 16 -25 25 -12 4 7 3 9 -4 5 -5 -3 -13 0 -15 6 -4
9 -6 10 -6 1z"/>
<path d="M3850 179 c0 -5 5 -7 10 -4 6 3 10 8 10 11 0 2 -4 4 -10 4 -5 0 -10
-5 -10 -11z"/>
<path d="M3192 157 c-1 -14 2 -17 6 -10 6 9 12 8 24 -6 9 -11 14 -21 12 -23
-2 -3 2 -5 10 -5 11 0 9 7 -7 28 -29 37 -43 41 -45 16z"/>
<path d="M3384 166 c-10 -8 -16 -18 -11 -22 10 -11 57 -11 50 -1 -3 5 -14 7
-24 4 -26 -7 -24 8 4 21 12 6 17 11 11 11 -5 1 -19 -5 -30 -13z"/>
<path d="M3570 165 c0 -8 4 -15 10 -15 5 0 7 7 4 15 -4 8 -8 15 -10 15 -2 0
-4 -7 -4 -15z"/>
<path d="M3699 168 c15 -21 31 -23 31 -6 0 6 -3 8 -7 5 -3 -4 -13 -1 -22 6
-14 11 -14 10 -2 -5z"/>
<path d="M1113 153 c0 -9 4 -10 14 -2 7 6 13 12 13 14 0 1 -6 2 -13 2 -8 0
-14 -6 -14 -14z"/>
<path d="M1300 160 c-9 -6 -10 -10 -3 -10 6 0 15 5 18 10 8 12 4 12 -15 0z"/>
<path d="M1333 155 c0 -8 4 -12 9 -9 5 3 6 10 3 15 -9 13 -12 11 -12 -6z"/>
<path d="M3248 148 c21 -21 23 -21 39 -6 15 16 15 18 -1 24 -11 4 -22 1 -27
-7 -6 -10 -9 -10 -9 -1 0 6 -5 12 -12 12 -7 0 -2 -10 10 -22z m37 2 c-3 -5
-11 -10 -16 -10 -6 0 -7 5 -4 10 3 6 11 10 16 10 6 0 7 -4 4 -10z"/>
<path d="M3806 162 c-3 -5 1 -9 9 -9 8 0 12 4 9 9 -3 4 -7 8 -9 8 -2 0 -6 -4
-9 -8z"/>
<path d="M3466 143 c-6 -14 -5 -15 5 -6 7 7 10 15 7 18 -3 3 -9 -2 -12 -12z"/>
<path d="M3635 151 c-3 -5 -2 -12 3 -15 5 -3 9 1 9 9 0 17 -3 19 -12 6z"/>
<path d="M1175 140 c-3 -5 -1 -10 4 -10 6 0 11 5 11 10 0 6 -2 10 -4 10 -3 0
-8 -4 -11 -10z"/>
<path d="M1216 138 c3 -5 10 -6 15 -3 13 9 11 12 -6 12 -8 0 -12 -4 -9 -9z"/>
<path d="M1617 136 c-4 -10 -1 -13 9 -9 7 3 14 1 14 -5 0 -6 -6 -13 -12 -15
-10 -4 -10 -6 -1 -6 20 -2 26 20 11 36 -14 13 -16 13 -21 -1z"/>
<path d="M1840 140 c-13 -8 -13 -11 -1 -22 8 -8 11 -8 7 -1 -3 6 0 13 6 16 7
2 11 7 8 10 -3 3 -12 2 -20 -3z"/>
<path d="M2202 135 c-7 -8 -9 -15 -5 -16 46 -6 74 -6 62 2 -8 5 -22 6 -31 3
-13 -4 -16 -1 -12 10 8 20 3 20 -14 1z"/>
<path d="M2862 136 c10 -7 15 -16 11 -19 -3 -4 -1 -7 5 -7 7 0 12 4 12 8 0 12
-22 32 -34 32 -6 0 -3 -7 6 -14z"/>
<path d="M3353 132 c2 -12 6 -24 10 -28 3 -4 4 4 2 16 -6 30 -16 40 -12 12z"/>
<path d="M1510 131 c0 -6 5 -13 12 -17 6 -4 8 -3 4 4 -3 5 0 13 6 15 8 3 6 6
-4 6 -10 1 -18 -3 -18 -8z"/>
<path d="M1717 120 c-8 -11 -17 -17 -22 -12 -5 4 -5 1 0 -7 6 -11 11 -9 24 8
13 16 19 19 28 10 9 -9 16 -8 28 5 9 9 13 16 8 16 -5 0 -14 -5 -21 -12 -9 -9
-12 -9 -12 0 0 18 -17 14 -33 -8z"/>
<path d="M2057 134 c7 -3 9 -13 6 -22 -6 -14 -5 -15 9 -2 16 15 7 31 -17 29
-5 0 -5 -3 2 -5z"/>
<path d="M2113 126 c-9 -11 -9 -15 0 -19 7 -3 14 3 14 14 2 22 2 22 -14 5z"/>
<path d="M2615 130 c-3 -6 1 -7 9 -4 18 7 21 14 7 14 -6 0 -13 -4 -16 -10z"/>
<path d="M3310 131 c0 -7 -4 -9 -10 -6 -5 3 -10 1 -10 -4 0 -6 4 -11 9 -11 13
0 25 20 17 27 -3 4 -6 1 -6 -6z"/>
<path d="M1580 120 c-9 -6 -10 -10 -3 -10 6 0 15 5 18 10 8 12 4 12 -15 0z"/>
<path d="M2453 115 c0 -8 4 -12 9 -9 4 3 8 9 8 15 0 5 -4 9 -8 9 -5 0 -9 -7
-9 -15z"/>
<path d="M2714 105 c2 -35 11 -39 12 -4 1 16 -2 29 -6 29 -4 0 -6 -11 -6 -25z"/>
<path d="M2760 116 c0 -8 4 -17 9 -20 5 -4 7 3 4 14 -6 23 -13 26 -13 6z"/>
<path d="M2820 119 c-12 -8 -10 -9 9 -4 18 6 22 4 15 -6 -13 -21 -14 -39 -2
-39 6 0 8 7 5 15 -4 8 -2 17 4 20 10 7 3 25 -9 25 -4 0 -14 -5 -22 -11z"/>
<path d="M3055 119 c-4 -6 -4 -13 -1 -16 3 -4 6 -1 6 6 0 7 5 9 10 6 6 -3 10
-1 10 4 0 14 -17 14 -25 0z"/>
<path d="M3407 119 c7 -7 15 -10 18 -7 3 3 -2 9 -12 12 -14 6 -15 5 -6 -5z"/>
<path d="M1989 108 c-11 -8 -11 -9 3 -5 9 3 18 1 21 -6 2 -8 5 -8 10 0 9 15
-17 23 -34 11z"/>
<path d="M2310 116 c0 -2 6 -9 14 -15 11 -9 16 -9 22 0 4 8 3 9 -4 5 -7 -4
-12 -2 -12 3 0 6 -4 11 -10 11 -5 0 -10 -2 -10 -4z"/>
<path d="M1375 100 c3 -5 8 -10 11 -10 2 0 4 5 4 10 0 6 -5 10 -11 10 -5 0 -7
-4 -4 -10z"/>
<path d="M1550 100 c14 -9 7 -14 -13 -11 -5 1 -6 -3 -2 -9 5 -8 11 -8 21 1 15
12 10 29 -9 29 -7 0 -6 -4 3 -10z"/>
<path d="M1654 99 c-4 -8 -3 -9 4 -5 16 10 15 -6 0 -24 -11 -12 -10 -12 3 -2
9 6 19 9 22 5 4 -3 7 -2 7 4 0 19 -27 36 -36 22z"/>
<path d="M1733 103 c4 -6 2 -13 -4 -15 -7 -2 -6 -8 3 -16 12 -9 14 -8 13 8 -1
11 -5 23 -10 27 -4 5 -5 3 -2 -4z"/>
<path d="M1775 99 c-4 -6 -5 -12 -2 -15 2 -3 7 2 10 11 7 17 1 20 -8 4z"/>
<path d="M2175 100 c-3 -6 1 -7 9 -4 18 7 21 14 7 14 -6 0 -13 -4 -16 -10z"/>
<path d="M2288 103 c10 -4 10 -8 0 -21 -12 -15 -11 -16 4 -3 19 14 15 32 -5
30 -8 0 -8 -2 1 -6z"/>
<path d="M2500 106 c0 -2 7 -7 16 -10 8 -3 12 -2 9 4 -6 10 -25 14 -25 6z"/>
<path d="M2587 93 c4 -9 9 -10 18 -3 6 5 15 8 18 5 4 -3 5 -2 2 2 -10 13 -43
10 -38 -4z"/>
<path d="M2895 100 c-4 -6 1 -7 11 -3 13 5 15 3 9 -8 -7 -11 -6 -12 7 -2 8 7
18 11 21 8 4 -3 5 -2 2 2 -9 11 -44 13 -50 3z"/>
<path d="M3188 103 c6 -2 18 -2 25 0 6 3 1 5 -13 5 -14 0 -19 -2 -12 -5z"/>
<path d="M3320 95 c-7 -8 -17 -12 -23 -8 -6 4 -7 1 -3 -6 6 -9 13 -8 27 5 10
9 19 19 19 21 0 7 -8 2 -20 -12z"/>
<path d="M2227 86 c-4 -10 -1 -13 9 -9 7 3 14 9 14 14 0 14 -17 10 -23 -5z"/>
<path d="M3255 80 c2 -27 10 -33 12 -10 1 11 -2 22 -6 24 -4 3 -7 -4 -6 -14z"/>
<path d="M1467 79 c7 -7 15 -10 18 -7 3 3 -2 9 -12 12 -14 6 -15 5 -6 -5z"/>
<path d="M1610 81 c0 -6 4 -12 8 -15 5 -3 9 1 9 9 0 8 -4 15 -9 15 -4 0 -8 -4
-8 -9z"/>
<path d="M1873 72 c2 -12 6 -24 10 -28 3 -4 4 4 2 16 -6 30 -16 40 -12 12z"/>
<path d="M1930 86 c0 -2 7 -7 16 -10 8 -3 12 -2 9 4 -6 10 -25 14 -25 6z"/>
<path d="M1973 74 c0 -9 4 -11 12 -4 7 5 14 9 16 7 2 -1 3 0 1 2 -7 11 -29 7
-29 -5z"/>
<path d="M2025 80 c-2 -4 3 -7 13 -6 10 0 16 -5 14 -14 -2 -8 0 -11 4 -7 15
15 11 33 -7 34 -10 1 -21 -2 -24 -7z"/>
<path d="M2990 80 c0 -5 9 -8 20 -7 21 1 18 10 -5 13 -8 1 -15 -2 -15 -6z"/>
<path d="M3055 79 c-2 -3 9 -5 26 -5 16 0 29 3 29 7 0 8 -50 7 -55 -2z"/>
<path d="M3177 75 c-4 -8 -3 -16 1 -19 4 -3 9 4 9 15 2 23 -3 25 -10 4z"/>
<path d="M3350 86 c0 -2 7 -7 16 -10 8 -3 12 -2 9 4 -6 10 -25 14 -25 6z"/>
<path d="M2633 65 c0 -8 4 -12 9 -9 5 3 6 10 3 15 -9 13 -12 11 -12 -6z"/>
<path d="M2693 65 c0 -8 4 -12 9 -9 5 3 6 10 3 15 -9 13 -12 11 -12 -6z"/>
<path d="M1826 58 c3 -4 9 -8 15 -8 5 0 9 4 9 8 0 5 -7 9 -15 9 -8 0 -12 -4
-9 -9z"/>
<path d="M1919 53 c-13 -16 -12 -17 4 -4 16 13 21 21 13 21 -2 0 -10 -8 -17
-17z"/>
<path d="M2320 60 c-9 -6 -10 -10 -3 -10 6 0 15 5 18 10 8 12 4 12 -15 0z"/>
<path d="M3035 51 c-3 -5 -2 -12 3 -15 5 -3 9 1 9 9 0 17 -3 19 -12 6z"/>
<path d="M1726 42 c-3 -5 1 -9 9 -9 8 0 12 4 9 9 -7 10 -11 10 -18 0z"/>
<path d="M2155 40 c-3 -5 -1 -10 4 -10 6 0 11 5 11 10 0 6 -2 10 -4 10 -3 0
-8 -4 -11 -10z"/>
<path d="M2766 38 c3 -5 10 -6 15 -3 13 9 11 12 -6 12 -8 0 -12 -4 -9 -9z"/>
</g>
</svg>
