<?xml version="1.0" encoding="utf-8"?>
<!-- Generator: Adobe Illustrator 16.0.0, SVG Export Plug-In . SVG Version: 6.00 Build 0)  -->
<!DOCTYPE svg PUBLIC "-//W3C//DTD SVG 1.1//EN" "http://www.w3.org/Graphics/SVG/1.1/DTD/svg11.dtd">
<svg version="1.1" id="icons" xmlns="http://www.w3.org/2000/svg" xmlns:xlink="http://www.w3.org/1999/xlink" x="0px" y="0px"
	 width="64px" height="64px" viewBox="0 0 64 64" enable-background="new 0 0 64 64" xml:space="preserve">
<g>
	<g>
		<path fill="#ED5565" d="M57.68,8.979c-7.09-7.09-18.59-7.09-25.68,0c-7.09-7.09-18.59-7.09-25.68,0
			c-7.091,7.091-7.091,18.591,0,25.681L32,60.339l25.68-25.68C64.77,27.569,64.77,16.069,57.68,8.979z"/>
	</g>
	<g>
		<path fill="#E6E9ED" d="M44.22,39.659c-1.63,1.939-3.71,3.47-6.08,4.45L32,40.879l-6.14,3.23c-2.36-0.98-4.44-2.511-6.07-4.45
			l1.17-6.811l-4.89-4.76H16.05c0.2-2.66,1.061-5.13,2.4-7.26l0.01,0.01l6.71-0.979l2.98-6.04v-0.011
			c1.229-0.31,2.52-0.47,3.85-0.47s2.62,0.16,3.85,0.47v0.011l2.98,6.04l6.72,0.979h0.01c1.551,2.46,2.44,5.38,2.44,8.5
			C48,33.269,46.58,36.869,44.22,39.659z M35.9,35.339l2.409-7.42L32,23.339l-6.31,4.58l2.409,7.42H35.9z"/>
	</g>
	<g>
		<g>
			<path fill="#656D78" d="M20.96,32.849l-1.17,6.811c-2.37-2.79-3.79-6.391-3.79-10.32c0-0.42,0.02-0.84,0.05-1.25h0.021
				L20.96,32.849z"/>
		</g>
		<g>
			<path fill="#656D78" d="M18.45,20.829c2.17-3.45,5.63-6.021,9.7-7.021v0.011l-2.98,6.04l-6.71,0.979L18.45,20.829z"/>
		</g>
		<g>
			<polygon fill="#656D78" points="38.31,27.919 35.9,35.339 28.1,35.339 25.69,27.919 32,23.339 			"/>
		</g>
		<g>
			<path fill="#656D78" d="M45.55,20.839l-6.72-0.979l-2.98-6.04v-0.011c4.08,1,7.54,3.57,9.71,7.03H45.55z"/>
		</g>
		<g>
			<path fill="#656D78" d="M43.04,32.849l1.17,6.811c2.37-2.79,3.79-6.391,3.79-10.32c0-0.42-0.02-0.84-0.05-1.25H47.93
				L43.04,32.849z"/>
		</g>
		<g>
			<path fill="#656D78" d="M32,40.879l6.14,3.23c-1.89,0.8-3.96,1.229-6.14,1.229s-4.25-0.43-6.14-1.229L32,40.879z"/>
		</g>
	</g>
</g>
<g>
	<g>
		<path d="M32,61.341c-0.266,0-0.52-0.105-0.707-0.293L5.613,35.366C1.993,31.747,0,26.936,0,21.818C0,16.7,1.993,11.89,5.613,8.271
			C9.23,4.652,14.042,2.66,19.159,2.66c4.791,0,9.313,1.746,12.841,4.938c3.528-3.192,8.051-4.938,12.842-4.938
			c5.116,0,9.928,1.992,13.545,5.611C62.007,11.89,64,16.7,64,21.818c0,5.117-1.993,9.929-5.613,13.548l-25.68,25.682
			C32.52,61.235,32.266,61.341,32,61.341z M19.159,4.66c-4.583,0-8.892,1.784-12.132,5.025C3.785,12.927,2,17.235,2,21.818
			s1.785,8.893,5.027,12.134L32,58.927l24.973-24.975C60.215,30.711,62,26.401,62,21.818s-1.785-8.892-5.027-12.133
			c-3.24-3.241-7.549-5.025-12.131-5.025c-4.583,0-8.893,1.784-12.135,5.025c-0.391,0.391-1.023,0.391-1.414,0
			C28.052,6.444,23.743,4.66,19.159,4.66z"/>
	</g>
	<g>
		<g>
			<path d="M32,46.338c-9.374,0-17-7.626-17-17s7.626-17,17-17s17,7.626,17,17S41.374,46.338,32,46.338z M32,14.338
				c-8.271,0-15,6.729-15,15s6.729,15,15,15s15-6.729,15-15S40.271,14.338,32,14.338z"/>
		</g>
		<g>
			<path d="M18.456,21.844c-0.488,0-0.916-0.358-0.988-0.855c-0.08-0.547,0.298-1.055,0.845-1.134l6.193-0.904l2.748-5.571
				c0.244-0.495,0.843-0.697,1.339-0.454c0.495,0.244,0.699,0.844,0.454,1.339l-2.98,6.042c-0.146,0.295-0.427,0.5-0.752,0.547
				l-6.713,0.98C18.553,21.841,18.504,21.844,18.456,21.844z"/>
		</g>
		<g>
			<path d="M19.786,40.662c-0.056,0-0.113-0.005-0.17-0.015c-0.545-0.093-0.91-0.61-0.816-1.154l1.08-6.289l-4.513-4.396
				c-0.396-0.386-0.404-1.019-0.02-1.414c0.387-0.398,1.02-0.401,1.414-0.02l4.89,4.763c0.236,0.23,0.344,0.562,0.288,0.886
				l-1.169,6.808C20.688,40.318,20.265,40.662,19.786,40.662z"/>
		</g>
		<g>
			<path d="M38.141,45.109c-0.156,0-0.315-0.037-0.464-0.114L32,42.014l-5.677,2.981c-0.49,0.256-1.093,0.067-1.351-0.421
				c-0.257-0.489-0.068-1.094,0.421-1.351l6.142-3.226c0.291-0.152,0.639-0.152,0.93,0l6.142,3.226
				c0.489,0.257,0.678,0.861,0.421,1.351C38.848,44.915,38.5,45.109,38.141,45.109z"/>
		</g>
		<g>
			<path d="M44.214,40.662c-0.479,0-0.901-0.344-0.984-0.831l-1.169-6.808c-0.056-0.324,0.052-0.655,0.288-0.886l4.892-4.763
				c0.396-0.384,1.028-0.378,1.414,0.02c0.385,0.396,0.377,1.028-0.02,1.414l-4.515,4.396l1.08,6.289
				c0.094,0.544-0.271,1.062-0.816,1.154C44.327,40.657,44.27,40.662,44.214,40.662z"/>
		</g>
		<g>
			<path d="M45.546,21.844c-0.048,0-0.097-0.003-0.146-0.011l-6.715-0.98c-0.325-0.047-0.606-0.252-0.752-0.547l-2.98-6.042
				c-0.245-0.495-0.041-1.095,0.454-1.339c0.497-0.244,1.095-0.041,1.339,0.454l2.748,5.57l6.195,0.905
				c0.547,0.079,0.925,0.587,0.845,1.134C46.462,21.485,46.034,21.844,45.546,21.844z"/>
		</g>
		<g>
			<path d="M35.902,36.342H28.1c-0.434,0-0.817-0.279-0.951-0.69l-2.412-7.417c-0.134-0.412,0.013-0.864,0.363-1.119l6.313-4.583
				c0.352-0.254,0.824-0.254,1.176,0l6.313,4.583c0.351,0.255,0.497,0.706,0.363,1.118l-2.41,7.417
				C36.72,36.063,36.336,36.342,35.902,36.342z M28.826,34.342h6.35l1.961-6.035L32,24.577l-5.137,3.729L28.826,34.342z"/>
		</g>
	</g>
</g>
</svg>
